<?xml version="1.0" encoding="utf-8"?>
<!-- Generator: Adobe Illustrator 21.0.0, SVG Export Plug-In . SVG Version: 6.00 Build 0)  -->
<svg version="1.1" xmlns="http://www.w3.org/2000/svg" xmlns:xlink="http://www.w3.org/1999/xlink" x="0px" y="0px" width="16px"
	 height="16px" viewBox="0 0 16 16" enable-background="new 0 0 16 16" xml:space="preserve">
<g id="icon_Name">
</g>
<g id="icons">
	<path fill="#FFFFFF" d="M8.5098877,4.892334c-0.1726685-0.0285034-0.34375-0.0423584-0.5123291-0.0423584
		c-1.5484009,0-2.8540649,1.1099854-3.1057739,2.6401978c-0.2810059,1.7134399,0.8845825,3.3356934,2.5983276,3.6174927
		c0.1726685,0.0285034,0.34375,0.0422974,0.5123291,0.0422974c1.5484009,0,2.8540649-1.1099854,3.1057739-2.6401978
		C11.3892212,6.7963257,10.2236328,5.1741333,8.5098877,4.892334z M10.1213379,8.3480225
		c-0.1922607,1.1715698-1.2977905,1.9655151-2.4693604,1.7732544C6.4804077,9.9290771,5.6864624,8.8234863,5.8787231,7.6519165
		c0.1921997-1.1715698,1.2977905-1.9654541,2.4693604-1.7732544C9.5196533,6.0709229,10.3135376,7.1764526,10.1213379,8.3480225z
		 M13.8306274,9.940918L16,9.137207l-0.0085449-2.3327637l-2.1793213-0.7893677
		c-0.0897217-0.2619019-0.1942139-0.5174561-0.317627-0.7637939l0.9664917-2.1040039l-1.6555786-1.6434937l-2.0992432,0.9829102
		c-0.2459717-0.1206055-0.4996338-0.229248-0.7652588-0.3173218L9.137207,0L6.8044434,0.0084839L6.0150757,2.1878052
		C5.7532349,2.2775269,5.4976196,2.382019,5.2512817,2.5054321L3.1472778,1.5389404L1.5037842,3.194519l0.9829102,2.0992432
		C2.3660889,5.5397949,2.2573853,5.793457,2.1693726,6.059082L0,6.862793l0.0085449,2.3327026l2.1793213,0.7894287
		c0.0896606,0.2618408,0.1941528,0.517395,0.317627,0.7637329l-0.9664307,2.1040039l1.6554565,1.6434937l2.0992432-0.9828491
		c0.2460327,0.1205444,0.4996948,0.229248,0.7653198,0.3173218L6.862793,15.999939l2.3327637-0.0084229l0.7893677-2.1793823
		c0.2618408-0.0897217,0.5174561-0.1942139,0.7637329-0.317627l2.1040649,0.9664307l1.6434937-1.6555176l-0.9829102-2.0992432
		C13.6339111,10.460144,13.7425537,10.2064819,13.8306274,9.940918z M12.6347656,13.2607422l-1.9052734-0.8759766
		l-0.4287109,0.2158203c-0.2070312,0.1035156-0.4208984,0.1904297-0.6396484,0.265625l-0.453125,0.1552734l-0.7148438,1.9726562
		l-0.9355469,0.0029297l-0.7275391-1.9628906l-0.4541016-0.1513672c-0.2236328-0.0751953-0.4365234-0.1669922-0.6435547-0.2675781
		l-0.4296875-0.2099609l-1.8994141,0.8886719l-0.6640625-0.6591797l0.8759766-1.9052734l-0.2158203-0.4287109
		C3.2958984,10.09375,3.2089844,9.8798828,3.1337891,9.6611328l-0.1552734-0.453125L1.0058594,8.4931641L1.0029297,7.5576172
		l1.9628906-0.7275391l0.1513672-0.4541016c0.0751953-0.2236328,0.1669922-0.4365234,0.2675781-0.6435547l0.2099609-0.4296875
		L2.7060547,3.4033203l0.6591797-0.6640625l1.9052734,0.8759766l0.4287109-0.2158203
		C5.90625,3.2958984,6.1201172,3.2089844,6.3388672,3.1337891l0.453125-0.1552734l0.7148438-1.9726562l0.9345703-0.0029297
		l0.7275391,1.9628906l0.4550781,0.1513672c0.2246094,0.0751953,0.4365234,0.1669922,0.6435547,0.2675781l0.4296875,0.2099609
		l1.8994141-0.8886719l0.6640625,0.6591797l-0.8759766,1.9052734l0.2158203,0.4287109
		c0.1035156,0.2070312,0.1904297,0.4208984,0.265625,0.6396484l0.1552734,0.453125l1.9726562,0.7148438l0.0029297,0.9355469
		l-1.9619141,0.7265625l-0.1523438,0.4541016c-0.0751953,0.2236328-0.1669922,0.4375-0.2675781,0.6445312l-0.2099609,0.4296875
		l0.8886719,1.8994141L12.6347656,13.2607422z"/>
</g>
</svg>