<?xml version="1.0" encoding="UTF-8" standalone="no"?>
<svg
   xmlns="http://www.w3.org/2000/svg"
   version="1.1"
   id="Layer_1"
   x="0px"
   y="0px"
   viewBox="0 0 52 13"
   width="52"
   height="13"
   xml:space="preserve">
	<g
     transform="matrix(0.7861875,0,0,0.7861875,0.2,0.421)">
		<g>
			<path
         d="M 16,6 C 13.775635,6 12.016113,6 9.906311,6 L 8.0214844,0.1835938 6.1356812,6 C 4.8446045,6 1.2952881,6 0,6 l 4.9707031,3.5859375 -1.8936157,5.8125005 4.944397,-3.596619 4.9432986,3.596619 -1.89447,-5.8125005 z M 8.0214844,10.56543 4.9833985,12.775391 6.147461,9.2021484 3.0957031,7 H 6.8623047 L 8.0214844,3.4267578 9.1787109,7 H 12.925781 L 9.8945312,9.2050781 11.057617,12.774414 Z"
         style="fill:#6e6e6e" />
		</g>
	</g>
	<g
     transform="matrix(0.7861875,0,0,0.7861875,13.1,0.421)">
		<g>
			<path
         d="M 16,6 C 13.775635,6 12.016113,6 9.906311,6 L 8.0214844,0.1835938 6.1356812,6 C 4.8446045,6 1.2952881,6 0,6 l 4.9707031,3.5859375 -1.8936157,5.8125005 4.944397,-3.596619 4.9432986,3.596619 -1.89447,-5.8125005 z M 8.0214844,10.56543 4.9833985,12.775391 6.147461,9.2021484 3.0957031,7 H 6.8623047 L 8.0214844,3.4267578 9.1787109,7 H 12.925781 L 9.8945312,9.2050781 11.057617,12.774414 Z"
         style="fill:#6e6e6e" />
		</g>
	</g>
	<g
     transform="matrix(0.7861875,0,0,0.7861875,26.2,0.421)">
		<g>
			<path
         d="M 16,6 C 13.775635,6 12.016113,6 9.906311,6 L 8.0214844,0.1835938 6.1356812,6 C 4.8446045,6 1.2952881,6 0,6 l 4.9707031,3.5859375 -1.8936157,5.8125005 4.944397,-3.596619 4.9432986,3.596619 -1.89447,-5.8125005 z M 8.0214844,10.56543 4.9833985,12.775391 6.147461,9.2021484 3.0957031,7 H 6.8623047 L 8.0214844,3.4267578 9.1787109,7 H 12.925781 L 9.8945312,9.2050781 11.057617,12.774414 Z"
         style="fill:#6e6e6e" />
		</g>
	</g>
	<g
     transform="matrix(0.7861875,0,0,0.7861875,39.201,0.421)">
		<g>
			<path
         d="M 16,6 C 13.775635,6 12.016113,6 9.906311,6 L 8.0214844,0.1835938 6.1356812,6 C 4.8446045,6 1.2952881,6 0,6 l 4.9707031,3.5859375 -1.8936157,5.8125005 4.944397,-3.596619 4.9432986,3.596619 -1.89447,-5.8125005 z M 8.0214844,10.56543 4.9833985,12.775391 6.147461,9.2021484 3.0957031,7 H 6.8623047 L 8.0214844,3.4267578 9.1787109,7 H 12.925781 L 9.8945312,9.2050781 11.057617,12.774414 Z"
         style="fill:#6e6e6e" />
		</g>
	</g>
  
  <path
     d="m 19.40639,8.727409 -2.388505,1.737444 0.915172,-2.8092389 -2.399254,-1.7313016 h 2.961255 l 0.911332,-2.8092383 0.909797,2.8092383 h 2.9459 l -2.383131,1.7336049 0.914404,2.8061676 z"
     style="fill:#F7F12D;stroke-width:0.78618753;fill-opacity:1"/>
	<path
     id="path3730-6-4"
     d="m 45.50739,8.727409 -2.388505,1.737444 0.915172,-2.809239 -2.399254,-1.731302 h 2.961255 L 45.50739,3.1150742 46.417187,5.924312 h 2.9459 l -2.383131,1.733605 0.914404,2.806168 z"
     style="fill:#E0DB29;fill-opacity:1;stroke-width:0.78618753"
     />
</svg>