<?xml version="1.0" encoding="utf-8"?>
<!-- Generator: Adobe Illustrator 16.0.0, SVG Export Plug-In . SVG Version: 6.00 Build 0)  -->
<!DOCTYPE svg PUBLIC "-//W3C//DTD SVG 1.1//EN" "http://www.w3.org/Graphics/SVG/1.1/DTD/svg11.dtd">
<svg version="1.1" xmlns="http://www.w3.org/2000/svg" xmlns:xlink="http://www.w3.org/1999/xlink" x="0px" y="0px" width="135px"
	 height="16px" viewBox="0 0 135 16" enable-background="new 0 0 135 16" xml:space="preserve">
<g>
	<rect x="1.56" y="2.077" fill="none" stroke="#5D5D5D" stroke-width="0.952" stroke-miterlimit="10" width="12" height="12"/>
	<rect x="2.713" y="8.82" transform="matrix(0.7071 0.7071 -0.7071 0.7071 8.1926 -0.7094)" fill="#5D5D5D" width="4.48" height="1.429"/>
	<rect x="4.304" y="7.123" transform="matrix(-0.7071 0.7071 -0.7071 -0.7071 20.5666 7.1661)" fill="#5D5D5D" width="8.99" height="1.439"/>
	<rect x="16.602" y="2.077" fill="none" stroke="#5D5D5D" stroke-width="0.952" stroke-miterlimit="10" width="12" height="12"/>
	<rect x="31.635" y="2.119" fill="#9B9B9B" stroke="#5D5D5D" stroke-width="0.952" stroke-miterlimit="10" width="12" height="12"/>

	<rect x="46.486" y="2.119" fill="none" stroke="#5D5D5D" stroke-width="0.952" stroke-miterlimit="10" width="12" height="12"/>
	<rect x="47.639" y="8.862" transform="matrix(0.7071 0.7071 -0.7071 0.7071 21.3811 -32.4651)" fill="#5D5D5D" width="4.48" height="1.429"/>
	<rect x="49.231" y="7.165" transform="matrix(-0.7071 0.7071 -0.7071 -0.7071 97.2899 -24.5314)" fill="#5D5D5D" width="8.99" height="1.439"/>
	<rect x="61.504" y="2.119" fill="none" stroke="#5D5D5D" stroke-width="0.952" stroke-miterlimit="10" width="12" height="12"/>
	<rect x="76.537" y="2.119" fill="#9B9B9B" stroke="#5D5D5D" stroke-width="0.952" stroke-miterlimit="10" width="12" height="12"/>

	<rect x="91.458" y="2.119" fill="none" stroke="#9B9B9B" stroke-width="0.952" stroke-miterlimit="10" width="12" height="12"/>
	<rect x="92.61" y="8.862" transform="matrix(0.7071 0.7071 -0.7071 0.7071 34.5528 -64.2645)" fill="#E0E0E0" width="4.48" height="1.429"/>
	<rect x="94.202" y="7.165" transform="matrix(-0.7071 0.7071 -0.7071 -0.7071 174.0621 -56.3294)" fill="#E0E0E0" width="8.991" height="1.439"/>
	<rect x="106.5" y="2.119" fill="none" stroke="#9B9B9B" stroke-width="0.952" stroke-miterlimit="10" width="12" height="12"/>
	<rect x="121.533" y="2.119" fill="#E5E5E5" stroke="#9B9B9B" stroke-width="0.952" stroke-miterlimit="10" width="12" height="12"/>
</g>
</svg>
