<svg xmlns="http://www.w3.org/2000/svg" xmlns:xlink="http://www.w3.org/1999/xlink" width="420" height="206" viewBox="0 0 420 206"><ellipse fill="#F8F8F8" cx="210" cy="103.369" rx="184.479" ry="72"/><g opacity=".6"><path fill="#6D6E71" d="M221.375 17.375h27.25v27.25h-27.25z"/><path fill="#D3EAF9" d="M222.284 18.284h25.434v25.433h-25.434z"/><path fill="#9BC29C" d="M247.717 43.716v-8.665c-.574.158-1.263.763-1.453.763h-1.144c-.601 0-1.175-.053-1.646-.468-.48-.42-.469-1.262-1.122-1.262-.876 0-.946 1.31-1.822 1.31-.398 0-.585-.282-.981-.282-.351 0-.701.224-.701.573v.912c0 .77-1.027.923-1.027 1.694 0 .314.28.431.28.747 0 1.051-1.87.91-1.87 1.962 0 .346.128.552.14.883a.868.868 0 0 1 .001.052c0 .392-.117 1.096-.312 1.781h11.657zm-16.016-.345c0-.552.173-.947.318-1.37.105-.301.193-.617.193-1.013 0-.993-1.897-.715-2.195-1.309-.74-1.476 1.261-1.855 1.261-3.035 0-.293-.151-.889-.608-.935-.638-.065-.804.28-1.447.28-.397 0-.794-.257-.794-.653 0-.703.56-1.029.56-1.729 0-.456-.186-.713-.186-1.168 0-.619.455-1.169 1.074-1.169.585 0 .841.479 1.121.981.234.422.64.561 1.121.561.889 0 1.449-1.109 1.449-1.776 0-.455.339-.887.795-.887.629 0 .864.655 1.494.655 1.039 0 1.001-1.375 1.916-1.87 1.121-.606.794-1.914.654-2.615-.061-.311.527-.91.843-.889 1.307.094.746-.979.746-1.495 0-.092.015-.177.042-.257.203-.601 1.079-.793 1.079-1.517 0-.514-.421-.748-.421-1.261 0-.759 1.125-1.444 2.302-2.001.27-.128.416-.35.496-.614h-21.231v25.433h9.44a4.988 4.988 0 0 1-.022-.347z"/></g><path opacity=".8" fill="#F8F8F8" d="M222 18v26h26V18h-26zm25 25h-24V19h24v24z"/><g opacity=".6"><linearGradient id="a" gradientUnits="userSpaceOnUse" x1="247.31" y1="73.452" x2="267.801" y2="93.942"><stop offset="0" stop-color="#fffbe4"/><stop offset="1" stop-color="#eed865"/></linearGradient><path fill="url(#a)" d="M267.801 93.942h-20.49v-20.49h20.49v20.49z"/><path fill="#F0E498" d="M248.774 74.915h17.562v17.563h-17.562z"/><linearGradient id="b" gradientUnits="userSpaceOnUse" x1="272.191" y1="73.452" x2="292.682" y2="93.942"><stop offset="0" stop-color="#daeeff"/><stop offset=".978" stop-color="#8cd9ff"/></linearGradient><path fill="url(#b)" d="M292.682 93.942h-20.491v-20.49h20.491v20.49z"/><path fill="#D3EAF9" d="M273.655 74.915h17.563v17.563h-17.563z"/><path fill="#5FBA65" d="M292.682 118.823h-20.491v-20.49h20.491v20.49z"/><path d="M259.588 87.941c.634-.111.083 1.003-.466.929-.277-.034-.488-.343-.743-.475-.414-.217-.555-.12-1.016-.057-1.131.154-.539-.569-.171-1.101.292-.42.464-.489.989-.254.382.171.779.523 1.126.772l.281.186zm2.234-7.632c-.357.14-1.134.406-1.342.743-.264.42.18.94.413 1.247.341.455.534.7.556 1.269.019.458.163 1.678.919 1.284.659-.346.556-1.481.663-2.036.127-.654.939-.892 1.073-1.48.138-.598-.38-1.563-1.063-1.392-.242.06-.479.412-.8.226l-.419.139zm-6.051 5.397c.286-.506-1.912-1.098-2.304-.98-.824.246-1.126 1.898-.518 2.413.718.604 1.271-.206 1.566-.686.155-.251.075-.332.464-.375.208-.023.426.072.651.003l.141-.375zM273.655 99.796h17.563v17.563h-17.563z" fill="#9BC29C"/><path fill="none" d="M247.311 73.452h46.835v46.835h-46.835z"/><path fill="#D3B490" d="M267.801 88.699a14.394 14.394 0 0 1-3.845-1.232c-.046-.023-.092-.043-.14-.066 1.055-.866 2.326-1.564 3.593-2.158.127-.057.26-.112.392-.163v-1.029c-.18.083-.408.166-.79.349-1.418.669-2.88 1.483-4.095 2.564-2.283-1.101-4.204-2.115-5.395-4.302a8.829 8.829 0 0 0-1.193-1.661c.447-.372.83-.846 1.104-1.535.7-1.815 1.914-3.885 2.436-6.014h-.954c-.512 1.869-1.624 3.842-2.351 5.677a2.673 2.673 0 0 1-.892 1.218 8.866 8.866 0 0 0-5.933-2.298c-.812 0-1.628.126-2.429.354v.975a7.923 7.923 0 0 1 2.429-.4c1.856 0 3.67.663 5.109 1.875-.512.263-1.11.526-1.801.898-1.598.872-3.316 1.578-4.896 2.473-.33.2-.598.443-.841.697v1.521c.031-.049.062-.103.096-.151 1.422.78 2.883 1.615 3.866 2.572.511.455.487.243.613.578.044.128.071.289.071.466.005.5-.22 1.141-.473 1.589-.492.878-1.021 1.649-1.479 2.447h1.082c.368-.609.783-1.244 1.209-1.993.311-.563.591-1.298.595-2.044 0-.266-.037-.532-.133-.789-.25-.686-.717-.766-.839-.926-1.078-1.041-2.545-1.884-3.942-2.65.188-.2.391-.383.632-.506 1.515-.857 3.229-1.563 4.888-2.47.707-.395 1.418-.674 2.062-1.041.435.472.826.992 1.149 1.581 1.293 2.37 3.32 3.487 5.502 4.548-.047.051-.103.091-.148.146-1.226 1.509-2.214 4.313-3.467 6.143h1.135c1.222-1.956 2.007-4.431 3.038-5.534.101-.115.224-.212.329-.323.151.074.3.146.451.217a15.37 15.37 0 0 0 4.254 1.338v-.941z"/><path fill="#808284" d="M247.311 73.452v20.476h20.49V73.452h-20.49zm19.026 19.026h-17.562V74.901h17.562v17.577z"/><path fill="#6DB5E3" d="M272.191 73.452v20.473h5.444c.047-.149.096-.275.147-.42.1-.289.186-.592.186-.969 0-.952-1.815-.686-2.101-1.255-.708-1.412 1.206-1.775 1.206-2.904 0-.28-.145-.852-.58-.895-.612-.063-.772.269-1.387.269-.38 0-.758-.246-.758-.626 0-.672.535-.983.535-1.655 0-.435-.179-.683-.179-1.118 0-.592.436-1.118 1.027-1.118.558 0 .806.458 1.073.938.225.406.613.538 1.073.538.85 0 1.387-1.061 1.387-1.698 0-.435.323-.849.761-.849.602 0 .826.623 1.432.623.992 0 .955-1.312 1.831-1.787 1.073-.58.762-1.833.625-2.504-.058-.297.506-.872.806-.849 1.252.088.715-.94.715-1.432 0-.089.016-.171.041-.246.194-.577 1.033-.76 1.033-1.452 0-.437-.304-.671-.375-1.063h-13.942zm20.157 14.13h-1.095c-.575 0-1.125-.049-1.575-.446-.46-.403-.449-1.206-1.075-1.206-.837 0-.906 1.252-1.74 1.252-.384 0-.561-.269-.94-.269-.336 0-.672.211-.672.546v.875c0 .735-.983.881-.983 1.621 0 .3.269.412.269.714 0 1.003-1.79.872-1.79 1.875 0 .332.123.532.135.846v.048c0 .137-.016.292-.041.486h9.843v-6.329a7.774 7.774 0 0 0-.336-.013z"/><path fill="#9BC29C" d="M272.191 73.452v20.473h4.091c.071-.294.166-.558.269-.852.009-.026.021-.051.029-.074-.032-.009-.059-.017-.082-.02-.59-.137-1.399-.326-1.798-1.112-.631-1.269-.13-2.221.358-2.812-1.111-.023-2.015-.88-2.015-1.93 0-.669.257-1.144.43-1.455l.107-.2c0-.043-.013-.097-.046-.229-.056-.211-.136-.503-.136-.886 0-1.338 1.049-2.424 2.337-2.424 1.169 0 1.754.82 2.096 1.406a.817.817 0 0 0 .13-.326c0-1.189.928-2.156 2.065-2.156.555 0 .983.217 1.326.452.006-.005.009-.014.012-.023.234-.417.59-1.043 1.305-1.435.142-.075.099-.452-.03-1.098-.103-.509.063-1.055.46-1.541a2.395 2.395 0 0 1 1.05-.749 2.458 2.458 0 0 1-.018-.246c0-.217.034-.432.108-.669.194-.566.584-.912.853-1.149a2.389 2.389 0 0 1-.269-.946h-12.632zm20.157 15.436h-1.095c-.77 0-1.664-.094-2.433-.769a2.33 2.33 0 0 1-.357-.389c-.327.36-.838.755-1.604.755-.109 0-.218-.009-.312-.026-.046.792-.509 1.278-.823 1.563.065.18.117.392.117.646 0 1.321-1.1 1.855-1.63 2.11l-.1.048c.034.16.062.346.074.612 0 .009-.016.197-.049.486h8.544v-5.023c-.143-.007-.265-.013-.332-.013z"/><path fill="#F4EEC8" d="M272.191 98.333v10.305c.237-.069.453-.26.62-.68 2.176-5.432 4.814 1.086 5.9.034 1.097-1.063-.383-2.501.655-3.604.82-.872 2.058-.472 2.76-1.552.67-1.029-.591-4.471.31-3.571 1.83-.2 3.52.486 4.774-.932h-15.019z"/><path fill="#F0E498" d="M272.191 106.625c.472-.892 1.301-1.976 2.659-1.976 1.079 0 1.975.712 2.785 1.478l.243.234.089.085-.014-.08c-.117-.718-.296-1.798.598-2.75.589-.624 1.298-.823 1.814-.969.51-.143.685-.208.807-.386.118-.297-.028-1.358-.088-1.81-.126-.938-.209-1.549.224-2.047.027-.031.07-.046.102-.074h-9.219v8.295zm10.88-8.292c.068.057.126.108.157.143.386.383.743.577 1.069.577.423 0 .895-.309 1.349-.72h-2.575z"/><path fill="#F7CB93" d="M276.923 104.101c-.612-.36-1.298-.606-2.072-.606-.44 0-.962.077-1.501.329 0 0-.77-.211-1.158.952v-6.443h7.451c.007.363.244 1.887.297 2.264.058.429.092.729.107.943-.567.154-1.521.426-2.334 1.283a3.583 3.583 0 0 0-.79 1.278z"/><path fill="#F4EEC8" d="M292.682 101.26c-1.058 1.552-1.524 4.445-2.289 5.46-1.623 2.149-2.314-.006-2.95-1.784-.78-2.187-1.007-3.642-3.021-1.704-.762.732-1.335.752-1.014 2.053.256 1.038 1.123 1.392.869 2.65-.868.054-1.598-.152-2.154.483-.58.666.116 1.484-.84 2.141-.94.643-1.969.314-3.008.472-.447.069-.846.191-1.144.506.461.604 1.301.943 2.056 1.161 1.28.36 2.626.503 3.851 1.041-1.553.946-3.546.749-4.594 2.295a62.5 62.5 0 0 1-2.02 2.79h6.599c.33-.206.665-.409.967-.62.857-.592 2.221-.709 3.104-1.241.546.809-.37 1.095.105 1.761.028.04.077.063.111.1h5.371V101.26z"/><path fill="#F0E498" d="M292.682 103.967c-.096.271-.182.532-.254.754-.361 1.098-.674 2.047-1.143 2.67-.25.332-1.016 1.344-2.119 1.344-1.555 0-2.171-1.727-2.775-3.419l-.206-.6c-.13-.375-.298-.855-.435-1.149a4.576 4.576 0 0 0-.555.475 6.39 6.39 0 0 1-.545.463c-.075.06-.179.14-.21.14-.007 0-.007-.002-.007-.011 0 .003-.012.103.057.383.058.22.176.409.328.649.334.538.799 1.272.556 2.49a1.114 1.114 0 0 1-1.036.892c-.231.014-.449.014-.829.014-.46 0-.494.04-.521.057a1.31 1.31 0 0 0-.022.272c-.016.492-.046 1.4-1.058 2.095a3.326 3.326 0 0 1-1.029.466c.857.186 1.739.383 2.607.763.38.169.64.535.666.949.025.417-.179.814-.533 1.029-.727.443-1.5.666-2.183.869-1.021.3-1.667.512-2.067 1.101a55.172 55.172 0 0 1-1.552 2.161h2.842c.814-.343 1.671-.829 2.693-1.535.598-.415 1.316-.634 1.948-.826.472-.143.918-.277 1.215-.46.178-.106.381-.16.573-.16.362 0 .717.177.93.492.501.74.396 1.389.247 1.83.145.068.346.14.485.186.286.103.572.211.819.34.07.037.156.091.231.134h2.88v-14.858z"/><path fill="#F7CB93" d="M292.682 107.208c-.149.306-.287.626-.479.883-.901 1.195-1.924 1.798-3.036 1.798-1.243 0-2.062-.637-2.658-1.518v.006a2.257 2.257 0 0 1-2.093 1.821c-.123.009-.24.012-.375.018-.074.38-.22.823-.52 1.266.144.051.285.114.43.174a2.271 2.271 0 0 1 .502 3.857l.556-.172c.346-.105.742-.223.916-.334a2.27 2.27 0 0 1 3.048.677c.373.549.563 1.126.57 1.729.198.077.393.163.576.257.322.174.726.426 1.202.734.187.12.423.266.671.417h.69v-11.613z"/><path fill="#FFAD8C" d="M272.191 98.333v6.443c.389-1.164 1.158-.952 1.158-.952.104-.048.203-.063.306-.1v-3.942h6.166c-.083-.563-.175-1.226-.179-1.449h-7.451zm20.011 9.759a5.464 5.464 0 0 1-.983 1v8.267h-1.686c0 .017.009.034.009.054.198.077.393.163.576.257.322.174.726.426 1.202.734.187.12.423.266.671.417h.69v-11.614c-.149.307-.286.627-.479.885z"/><path fill="#808284" d="M272.191 73.452v20.476h20.49V73.452h-20.49zm19.028 19.026h-17.563V74.901h17.563v17.577zm-19.028 5.855v20.476h20.49V98.333h-20.49zm19.028 19.026h-17.563V99.782h17.563v17.577zm-43.908-19.026v20.476h20.49V98.333h-20.49zm19.026 19.026h-17.562V99.782h17.562v17.577z"/><path fill="#D3EAF9" d="M248.774 99.796h17.562v17.563h-17.562z"/><path fill-rule="evenodd" clip-rule="evenodd" fill="#E9DED4" d="M262.133 100.639l.002.006c-.008.017-.019.032-.026.043l-.116.163c-.009.011-.018.022-.022.031a5.445 5.445 0 0 1-.269-.028 8.238 8.238 0 0 1-1.097-.28l-.295-.077a3.253 3.253 0 0 0-.481-.117l-.186-.015h-.065c-.184 0-.36.029-.523.086l-.077.026-.065.04-.16.085-.072.037-.063.052a1.878 1.878 0 0 0-.282.266c-.02.023-.067.066-.165.14-.135.1-.289.197-.442.294l-.164.109a3.733 3.733 0 0 0-.551.406c-.139.12-.263.26-.356.397a1.61 1.61 0 0 0-.222 1.532c.035.105.065.229.091.363.08.432.083.875.053 1.204l-.79.657c-.108.037-.226.08-.346.126l-.255.111c-1.222.535-1.955 1.195-2.163 1.918l-.092.246-.012.134c-.04.46-.132.915-.257 1.281-.151.423-.302.575-.335.589-.065.014-.155.02-.269.02-.092 0-.183-.003-.269-.009l-.475-.045a10.804 10.804 0 0 0-.996-.063c-.299 0-.562.026-.793.085l-.175.026-.039.012a4.507 4.507 0 0 0-.492.206l-.046.246v6.417h17.562V99.796h-4.439l.009.092c.038.365.133.571.225.751z"/><path fill="#D3B490" d="M262.778 99.796c.049.452.206.42.271.869a.477.477 0 0 1-.057.246c-.003.005-.009.014-.012.022a2.54 2.54 0 0 1-.157.257c-.143.206-.311.415-.386.572v.003a2.595 2.595 0 0 1-.221.011 3.56 3.56 0 0 1-.52-.04c-.054-.008-.095-.008-.152-.02-.602-.106-1.034-.252-1.376-.354-.007-.015-.016-.026-.022-.04.004.014 0 .02.003.034-.035-.012-.059-.014-.091-.023-.128-.034-.251-.071-.357-.083a.816.816 0 0 0-.356.029c-.063.034-.126.065-.188.103a.945.945 0 0 0-.168.151 1.816 1.816 0 0 1-.301.269c-.202.149-.434.292-.66.438a3.419 3.419 0 0 0-.445.329 1.461 1.461 0 0 0-.22.243c-.146.208-.212.443-.105.734.051.146.091.312.125.489.172.912.089 2.138-.288 2.51a1.719 1.719 0 0 0-.172-.155h-.003c-.014-.011-.028-.028-.044-.037a.38.38 0 0 0-.216-.074c.001.292-.234.346-.29.583.007-.034.024-.057.038-.085a8.065 8.065 0 0 0-.639.223c-.078.032-.154.066-.234.1-.753.332-1.518.823-1.69 1.407-.016.054-.049.105-.055.163a6.18 6.18 0 0 1-.306 1.501c-.206.58-.518 1.052-.972 1.152-.232.052-.501.049-.785.029-.673-.046-1.422-.183-2.001-.046-.042.011-.093.003-.133.017-.157.054-.512.229-.82.389v5.649h17.562V99.796h-3.557zm-2.981 2.599l-.003.003.006-.009h.003v-.003a.024.024 0 0 0-.006.009zm4.803.674c-.003.017-.009.031-.012.048 0-.008.003-.014.006-.023l.009-.034-.003.009z"/></g><g opacity=".6"><path clip-rule="evenodd" fill="none" d="M193.873 139.339h42.792v42.792h-42.792z"/><path fill="#5B945A" d="M193.873 182.132h42.792l-6.687-18.722H200.56z"/><path fill="#9BC29C" d="M195.77 180.794l5.733-16.046h27.532l5.733 16.046z"/><path fill="#6D6E71" d="M201.897 144.688h12.034v34.769h-12.034zm10.697-5.349h-9.361l-1.336 5.349h12.035z"/><path fill="#F8F8F8" d="M203.233 144.688l1.045-4.012h7.272l1.044 4.012z"/><path fill="#E0E0E0" d="M203.233 146.025h9.361v32.095h-9.361z"/><path fill="#6D6E71" d="M216.607 152.712h12.035v22.733h-12.035zm10.646-5.349h-9.36l-1.336 5.349h12.034z"/><path fill="#F8F8F8" d="M217.893 152.712l1.045-4.012h7.271l1.044 4.012z"/><path fill="#E0E0E0" d="M217.944 154.049h9.361v20.058h-9.361z"/><g fill="#CCC"><path d="M219.281 155.387h1.337v1.337h-1.337zm2.675 0h1.337v1.337h-1.337zm2.674 0h1.337v1.337h-1.337zm-5.349 2.674h1.337v1.337h-1.337zm2.675 0h1.337v1.337h-1.337zm2.674 0h1.337v1.337h-1.337zm-5.349 2.675h1.337v1.337h-1.337zm2.675 0h1.337v1.337h-1.337zm2.674 0h1.337v1.337h-1.337zM219.281 163.41h1.337v1.337h-1.337zm2.675 0h1.337v1.337h-1.337zm2.674 0h1.337v1.337h-1.337zM219.281 166.085h1.337v1.337h-1.337zm2.675 0h1.337v1.337h-1.337zm2.674 0h1.337v1.337h-1.337zM219.281 168.76h1.337v1.337h-1.337zm2.675 0h1.337v1.337h-1.337zm2.674 0h1.337v1.337h-1.337zM219.281 171.434h1.337v1.338h-1.337zm2.675 0h1.337v1.338h-1.337zm2.674 0h1.337v1.338h-1.337z"/></g><g fill="#CCC"><path d="M204.571 148.7h1.337v1.337h-1.337zm2.675 0h1.337v1.337h-1.337zm2.674 0h1.337v1.337h-1.337zm-5.349 2.675h1.337v1.337h-1.337zm2.675 0h1.337v1.337h-1.337zm2.674 0h1.337v1.337h-1.337zm-5.349 2.674h1.337v1.337h-1.337zm2.675 0h1.337v1.337h-1.337zm2.674 0h1.337v1.337h-1.337zm-5.349 2.675h1.337v1.337h-1.337zm2.675 0h1.337v1.337h-1.337zm2.674 0h1.337v1.337h-1.337zM204.571 159.398h1.337v1.337h-1.337zm2.675 0h1.337v1.337h-1.337zm2.674 0h1.337v1.337h-1.337zM204.571 162.073h1.337v1.337h-1.337zm2.675 0h1.337v1.337h-1.337zm2.674 0h1.337v1.337h-1.337zM204.571 164.748h1.337v1.337h-1.337zm2.675 0h1.337v1.337h-1.337zm2.674 0h1.337v1.337h-1.337zM204.571 167.422h1.337v1.338h-1.337zm2.675 0h1.337v1.338h-1.337zm2.674 0h1.337v1.338h-1.337zM204.571 170.097h1.337v1.337h-1.337zm2.675 0h1.337v1.337h-1.337zm2.674 0h1.337v1.337h-1.337zM204.571 172.771h1.337v1.336h-1.337zm2.675 0h1.337v1.336h-1.337zm2.674 0h1.337v1.336h-1.337zM204.571 175.445h1.337v1.337h-1.337zm2.675 0h1.337v1.337h-1.337zm2.674 0h1.337v1.337h-1.337z"/></g><path fill="#F8F8F8" d="M203.233 146.025h1.337v32.095h-1.337zm14.711 8.024h1.337v20.058h-1.337z"/><path fill="#6D6E71" d="M221.956 143.351h1.337v6.687h-1.337z"/></g><g opacity=".6"><path fill="#6D6E71" d="M49.993 155.213a2.002 2.002 0 0 1-1.998-2.002v-25a2 2 0 0 1 1.998-1.998h27c1.104 0 2.002.896 2.002 1.998v25a2.004 2.004 0 0 1-2.002 2.002h-27z"/><path fill="#F8F8F8" d="M49.994 154.211a.999.999 0 0 1-.999-1v-25c0-.553.447-1 .999-1h26.999c.552 0 1.002.447 1.002 1v25c0 .553-.45 1-1.002 1H49.994z"/><path fill="none" d="M47.995 125.213h32v32h-32z"/><path fill="#808284" d="M49.995 128.213v25h27v-25h-27zm26 24h-25v-23.01h25v23.01z"/><path fill="#F8F8F8" d="M50.995 129.213h25v23h-25z"/><path fill="#808284" d="M54.995 133.213h1v19h-1z"/><path fill="#808284" d="M50.995 140.213h25v1h-25zm0-4h25v1h-25zm0-4h25v1h-25z"/><path fill="#808284" d="M61.995 133.213h1v19h-1z"/><path fill="#808284" d="M50.995 144.213h25v1h-25zm0 4h25v1h-25z"/><path fill="#808284" d="M68.995 133.213h1v19h-1z"/><path fill="#6DB5E3" d="M50.995 129.213h25v3h-25z"/></g><g opacity=".6"><path fill-rule="evenodd" clip-rule="evenodd" fill="#F8F8F8" d="M115.553 36.869h25v25h-25z"/><path clip-rule="evenodd" fill="none" d="M109.553 35.869h32v32h-32z"/><path fill="#D3EAF9" d="M116.553 37.869h23v23h-23z"/><path fill="#9BC29C" d="M139.553 60.869v-6.994c-.19.123-.354.227-.428.227h-1.124c-.592 0-1.155-.053-1.619-.459-.471-.414-.46-1.24-1.103-1.24-.861 0-.93 1.285-1.791 1.285-.391 0-.574-.275-.964-.275-.345 0-.689.219-.689.562v.896c0 .758-1.01.906-1.01 1.666 0 .309.275.422.275.732 0 1.033-1.838.896-1.838 1.93 0 .34.126.543.138.869a4.803 4.803 0 0 1-.078.801h10.231zm-4.392-23h-18.608v23h8.347c.062-.24.146-.461.224-.686.103-.297.19-.607.19-.996 0-.977-1.865-.703-2.158-1.287-.727-1.451 1.239-1.824 1.239-2.984 0-.287-.147-.873-.597-.92-.628-.062-.792.277-1.423.277-.391 0-.78-.254-.78-.643 0-.689.55-1.012.55-1.701 0-.447-.184-.699-.184-1.146 0-.609.448-1.148 1.057-1.148.574 0 .826.471 1.102.963.23.416.63.551 1.103.551.873 0 1.424-1.088 1.424-1.744 0-.447.333-.873.781-.873.619 0 .85.645 1.469.645 1.021 0 .984-1.352 1.883-1.838 1.103-.596.781-1.883.643-2.57-.06-.305.519-.896.828-.873 1.285.092.734-.965.734-1.471 0-.092.015-.176.041-.254.199-.592 1.062-.779 1.062-1.49 0-.506-.414-.736-.414-1.24-.002-.578.656-1.109 1.487-1.572z"/><path fill="#6D6E71" d="M114.553 35.869v27h27v-27h-27zm26 26h-25v-25h25v25z"/><path fill-rule="evenodd" clip-rule="evenodd" fill="#F8F8F8" d="M122.353 52.27a.998.998 0 0 0-.8-.4h-7v11h11v-6a.995.995 0 0 0-.2-.6l-3-4z"/><path fill-rule="evenodd" clip-rule="evenodd" fill="#D3B490" d="M109.553 57.869h15v10h-15zm15-1h-15l3-4h9z"/><path fill-rule="evenodd" clip-rule="evenodd" fill="#E9DED4" d="M109.553 56.869h15v1h-15z"/><path fill-rule="evenodd" clip-rule="evenodd" fill="#58595B" d="M117.053 59.869l-3.5 3h2v3h3v-3h2z"/><path fill-rule="evenodd" clip-rule="evenodd" fill="#E9DED4" d="M116.553 52.869h1v4h-1z"/></g><g opacity=".6"><path clip-rule="evenodd" fill="none" d="M285.581 135.869h29v29h-29z"/><path fill="#6D6E71" d="M312.769 163.963h-21.75v-27.188h15.677l6.073 6.072z"/><path fill="#F8F8F8" d="M311.862 143.11l-5.428-5.428h-14.509v25.375h19.937z"/><path fill="#6D6E71" d="M305.519 137.682h.906v6.344h-.906z"/><path fill="#6D6E71" d="M305.519 143.119h7.25v.906h-7.25zm-19.938-1.812h18.125v18.125h-18.125z"/><path fill="#D3EAF9" d="M286.487 142.213h16.312v16.312h-16.312z"/><path fill="#9BC29C" d="M302.8 158.525v-5.556c-.369.101-.81.489-.932.489h-.733c-.385 0-.754-.036-1.057-.301-.308-.267-.3-.809-.72-.809-.562 0-.604.841-1.168.841-.255 0-.374-.183-.629-.183-.226 0-.449.144-.449.368v.584c0 .494-.661.593-.661 1.086 0 .202.181.278.181.48 0 .674-1.2.584-1.2 1.258 0 .221.083.354.091.566.003.011.003.021.003.034 0 .253-.077.705-.202 1.142h7.476zm-10.273-.223c0-.352.111-.605.204-.876.066-.193.125-.398.125-.65 0-.637-1.216-.457-1.407-.839-.475-.949.808-1.193.808-1.949 0-.186-.096-.568-.391-.6-.408-.041-.515.181-.927.181-.255 0-.51-.165-.51-.419 0-.45.358-.659.358-1.108 0-.294-.119-.458-.119-.749 0-.398.292-.75.688-.75.377 0 .539.308.72.628.151.271.411.361.72.361.57 0 .929-.712.929-1.138 0-.292.218-.572.51-.572.404 0 .556.419.959.419.666 0 .643-.881 1.229-1.197.719-.387.51-1.23.419-1.678-.04-.2.337-.584.539-.572.839.062.48-.626.48-.958 0-.059.008-.115.026-.165.131-.386.693-.51.693-.975 0-.326-.271-.478-.271-.808 0-.488.722-.925 1.476-1.285a.598.598 0 0 0 .318-.393h-13.617v16.312h6.054c-.007-.098-.013-.179-.013-.22z"/><path fill="#F8F8F8" d="M287 142v17h16v-17h-16zm15 16h-14v-15h14v15z"/></g><g opacity=".6"><path fill="#6D6E71" d="M357.58 144.504a1.74 1.74 0 0 1-1.737-1.74v-21.729c0-.958.779-1.736 1.737-1.736h23.467a1.74 1.74 0 0 1 1.739 1.736v21.729c0 .959-.78 1.74-1.739 1.74H357.58z"/><path fill="#F8F8F8" d="M357.58 143.633a.868.868 0 0 1-.868-.869v-21.729c0-.48.389-.869.868-.869h23.467a.87.87 0 0 1 .87.869v21.729a.87.87 0 0 1-.87.869H357.58z"/><path fill="none" d="M355.843 118.43h27.812v27.812h-27.812z"/><path fill="#808284" d="M357.581 121.037v21.729h23.467v-21.729h-23.467zm22.598 20.859H358.45v-19.999h21.729v19.999z"/><path fill="#808284" d="M361.927 125.383h.869v16.514h-.869z"/><path fill="#808284" d="M358.45 131.467h21.729v.869H358.45zm0-3.477h21.729v.869H358.45zm0-3.476h21.729v.869H358.45z"/><path fill="#808284" d="M368.011 125.383h.869v16.514h-.869z"/><path fill="#808284" d="M358.45 134.943h21.729v.869H358.45zm0 3.477h21.729v.869H358.45z"/><path fill="#808284" d="M374.095 125.383h.869v16.514h-.869z"/><path fill="#5B945A" d="M358.45 121.906h21.729v2.607H358.45z"/></g><g opacity=".6"><path clip-rule="evenodd" fill="none" d="M177.089 74.869h32v32h-32z"/><path fill="#6D6E71" d="M205.089 105.869h-24v-30h17.3l6.7 6.699z"/><path fill="#F8F8F8" d="M204.089 82.859l-5.99-5.99h-16.01v28h22z"/><path fill="#6D6E71" d="M197.089 76.869h1v7h-1z"/><path fill="#6D6E71" d="M197.089 82.869h8v1h-8zm-2.999 18h-16.002a.998.998 0 0 1-.999-1v-17c0-.553.445-1 .999-1h16.002c.554 0 .999.447.999 1v17c0 .553-.445 1-.999 1z"/><path fill="#F8F8F8" d="M178.089 82.869h16v17h-16z"/><path fill="#6D6E71" d="M182.089 86.869h1v13h-1z"/><path fill="#6D6E71" d="M178.089 95.869h16v1h-16zm0-3h16v1h-16zm0-3h16v1h-16zm0-4h16v1h-16z"/><path fill="#6D6E71" d="M187.089 86.869h1v13h-1z"/><path fill="#5B945A" d="M178.089 82.869h16v3h-16z"/></g><g opacity=".6"><path clip-rule="evenodd" fill="none" d="M28.995 68.369h32v32h-32z"/><path fill="#6D6E71" d="M56.995 99.369h-24v-30h17.299l6.701 6.699z"/><path fill="#F8F8F8" d="M55.995 76.359l-5.991-5.99H33.995v28h22z"/><path fill="#6D6E71" d="M48.995 70.369h1v7h-1z"/><path fill="#6D6E71" d="M48.995 76.369h8v1h-8zm-9 4h6.735l.012.685c-1.252.095-1.371.261-1.252.732.26.993.567 2.126 1.016 3.85 1.157-1.368 2.385-2.88 3.023-3.802.283-.426.165-.591-.261-.661l-1.273-.119v-.685c.591.023 5.315 0 6 0v.685c-1.818.144-2.601.403-3.568 1.347-.826.803-2.055 2.174-3.685 4.111 1.015 3.778 1.725 6.188 2.148 7.322.189.496.521.613 1.088.685l1.017.166v.685h-6.993v-.685c1.276-.144 1.677-.261 1.535-.827-.26-1.088-.685-2.622-1.276-5.174-1.417 1.748-3.212 3.945-3.85 4.937-.378.592-.307.827.237.898l1.347.166v.685h-6v-.685c1.322-.095 2.006-.332 2.786-1.039 1.135-1.04 3.756-4.04 5.244-5.835-1.016-3.898-1.63-5.692-1.771-6.071-.143-.401-.401-.52-.826-.542l-1.433-.144v-.685z"/></g><g opacity=".6"><path clip-rule="evenodd" fill="none" d="M330.811 46.369h32v32h-32z"/><path fill="#6D6E71" d="M361.811 77.369h-24v-30h17.299l6.701 6.699z"/><path fill="#F8F8F8" d="M360.811 54.359l-5.991-5.99h-16.009v28h22z"/><path fill="#6D6E71" d="M353.811 48.369h1v7h-1z"/><path fill="#6D6E71" d="M353.811 54.369h8v1h-8zm-10.488 21c-.846 0-1.697-.089-2.533-.26a12.408 12.408 0 0 1-7.916-5.366 12.416 12.416 0 0 1-1.803-9.396c1.189-5.781 6.331-9.979 12.226-9.979.846 0 1.697.087 2.533.26a12.417 12.417 0 0 1 7.917 5.364 12.426 12.426 0 0 1 1.803 9.396c-1.19 5.782-6.331 9.981-12.227 9.981z"/><circle fill="#6DB5E3" cx="343.31" cy="62.869" r="11.496"/><path fill="#E0E0E0" d="M333.873 61.119l6.188-5.156 5.625 4.125 3.562-2.812 5.438 4.5s-4.312-1.275-11.438-1.219-10.688 1.125-10.688 1.125l1.313-.563z"/><path fill="#9BC29C" d="M331.879 61.633c-.637 5.828 3.255 11.29 9.112 12.496 6.221 1.28 12.301-2.723 13.581-8.941.247-1.202.296-2.396.172-3.555 0 0-4.253-1.252-11.434-1.252-7.359 0-11.431 1.252-11.431 1.252z"/><path fill="#808284" d="M343.811 61.369l-9 7h-1.584a11.534 11.534 0 0 0 2.354 3h15.455a11.47 11.47 0 0 0 2.372-3h-14.597l6-6-1-1z"/><defs><filter id="c" filterUnits="userSpaceOnUse" x="332.811" y="64.369" width="6.375" height="1.992"><feFlood result="back" flood-color="#fff" flood-opacity="1"/><feBlend in="SourceGraphic" in2="back"/></filter></defs><mask maskUnits="userSpaceOnUse" x="332.811" y="64.369" width="6.375" height="1.992" id="d"><image overflow="visible" width="12" height="7" xlink:href="2FC9EA2C99E20932.jpg" transform="translate(330 62)" filter="url(#c)"/></mask><g mask="url(#d)"><path fill="#5B945A" d="M335.811 66.361l3.375-1.992h-2.375l-4 1.992z"/></g><path fill="#F4EEC8" d="M335.811 64.369h-3l1.5-1h3z"/><path fill="#B88B55" d="M335.811 64.369l1.5-1v2.156l-1.5.844z"/><path fill="#E5D255" d="M332.811 64.369h3v2h-3z"/><path fill="none" d="M330.811 50.369h26v26h-26z"/><path fill="none" d="M330.811 50.369h26v26h-26z"/><path fill="#CCC" d="M335.811 69.369h1v1h-1zm2 0h1v1h-1zm2 0h1v1h-1zm2 0h1v1h-1zm2 0h1v1h-1zm2 0h1v1h-1zm2 0h1v1h-1zm2 0h1v1h-1z"/><defs><filter id="e" filterUnits="userSpaceOnUse" x="341.811" y="63.369" width="9" height="4"><feFlood result="back" flood-color="#fff" flood-opacity="1"/><feBlend in="SourceGraphic" in2="back"/></filter></defs><mask maskUnits="userSpaceOnUse" x="341.811" y="63.369" width="9" height="4" id="f"><image overflow="visible" width="14" height="9" xlink:href="2FC9EA2C99E20936.jpg" transform="translate(339 61)" filter="url(#e)"/></mask><g mask="url(#f)"><path fill="#5B945A" d="M344.811 67.369l6-4h-3l-5 3-1 1z"/></g><defs><filter id="g" filterUnits="userSpaceOnUse" x="347.811" y="63.369" width="7.202" height="4"><feFlood result="back" flood-color="#fff" flood-opacity="1"/><feBlend in="SourceGraphic" in2="back"/></filter></defs><mask maskUnits="userSpaceOnUse" x="347.811" y="63.369" width="7.202" height="4" id="h"><image overflow="visible" width="13" height="9" xlink:href="2FC9EA2C99E20931.jpg" transform="translate(345 61)" filter="url(#g)"/></mask><g mask="url(#h)"><path fill="#5B945A" d="M355.013 63.369h-1.202l-5 3-1 1h3l4.067-2.711c.066-.431.116-.862.135-1.289z"/></g><path fill="#F4EEC8" d="M344.811 56.369h-3l1.5-1h3z"/><path fill="#B88B55" d="M344.811 56.369l1.5-1v11l-1.5 1z"/><path fill="#E5D255" d="M341.811 56.369h3v11h-3z"/><path fill="#F4EEC8" d="M350.811 60.369h-3l1.5-1h3z"/><path fill="#B88B55" d="M350.811 60.369l1.5-1v7l-1.5 1z"/><path fill="#E5D255" d="M347.811 60.369h3v7h-3z"/><path fill="#B88B55" d="M342.811 57.369h1v1h-1z"/><path fill="#A67A47" d="M344.811 57.369h1v1h-1zm0 2h1v1h-1zm6 2h1v1h-1zm0 2h1v1h-1zm-6-2h1v1h-1zm0 2h1v1h-1z"/><path fill="#B88B55" d="M342.811 59.369h1v1h-1zm0 2h1v1h-1zm0 2h1v1h-1zm0 2h1v1h-1zm6-4h1v1h-1zm0 2h1v1h-1zm0 2h1v1h-1zm-15 0h1v1h-1z"/></g><g opacity=".6" stroke-width="1.09"><path fill="#FFF" stroke="#6D6E71" d="M117.144 105.581v51.772h41.398v-39.426l-12.246-12.346z"/><path fill="none" stroke="#57A6D9" d="M123.198 120.913h17.249m-17.28 6.853h27.6m-27.6 6.853h27.6m-27.6 6.86h27.6m-27.6 6.859h27.6"/><path fill="none" stroke="#6D6E71" d="M158.542 117.927h-12.246v-12.346"/></g></svg>