<svg xmlns="http://www.w3.org/2000/svg" xmlns:xlink="http://www.w3.org/1999/xlink" width="19" height="17" viewBox="0 0 19 17"><defs><path id="a" d="M3.501-1h16v16h-16z"/></defs><clipPath id="b"><use xlink:href="#a" overflow="visible"/></clipPath><path clip-path="url(#b)" fill="none" stroke="gray" stroke-width=".25" stroke-miterlimit="10" d="M-220.499-49h306v396h-306z"/><path fill="#D9C44C" d="M11.501 1l-.5-1h-5.5l-.5 1h-1v11h15V1z"/><path fill="#F8F8F8" d="M4.501 3V1.5h.809l.5-1h4.881l.5 1h7.31V3z"/><path fill="#D9C44C" d="M7.5 6.5l-.5-1H1.5l-.5 1H0V17h15V6.5z"/><path fill="#F8F8F8" d="M.5 8.5V7h.81l.5-1h4.881l.5 1H14.5v1.5z"/><path fill="#F8F8F8" d="M15 6H7.809l-.362-.724A.5.5 0 0 0 7 5H4.001v.5H7l.5 1H15V12h.5V6.5A.5.5 0 0 0 15 6z"/></svg>