<svg xmlns="http://www.w3.org/2000/svg" width="12" height="16" viewBox="0 0 12 16"><path fill="#5B945A" d="M6 4H2C.896 4 0 4.897 0 6v4a1 1 0 0 0 1 1h1a1 1 0 0 0 1 1h2a1 1 0 0 0 1-1h1c.554 0 1-.447 1-1V6c0-1.103-.896-2-2-2"/><path fill="#5B945A" d="M6 2a2 2 0 1 1-4 0 2 2 0 0 1 4 0"/><path fill="#DDEEDB" d="M4 3a1.001 1.001 0 1 1 1-1 1 1 0 0 1-1 1m2 2H2a1 1 0 0 0-1 1v4h2v1h2v-1h2V6c0-.553-.446-1-1-1"/><path fill="#9BC29C" d="M5.001 7h1v3h-1zm-3 0h1v3h-1z"/><path fill="#F8F8F8" d="M8 10V6c0-1.103-.896-2-2-2h-.22A2.976 2.976 0 0 0 5 6c0 .395.081.771.22 1.115A2.997 2.997 0 0 0 3 10v2h2a1 1 0 0 0 1-1h1c.554 0 1-.447 1-1"/><path fill="#57A6D9" d="M10 6a2 2 0 1 1-4 0 2 2 0 0 1 4 0"/><path fill="#57A6D9" d="M10 8H6a2 2 0 0 0-2 2v4a1 1 0 0 0 1 1h1a1 1 0 0 0 1 1h2c.554 0 1-.447 1-1h1c.554 0 1-.447 1-1v-4c0-1.103-.896-2-2-2"/><path fill="#D3EAF9" d="M8 7c-.551 0-1-.449-1-1s.449-1 1-1a1 1 0 0 1 0 2m2 2H6a1 1 0 0 0-1 1v4h2v1h2v-1h2v-4c0-.553-.446-1-1-1"/><path fill="#6DB5E3" d="M9.001 11h1v3h-1zm-3 0h1v3h-1z"/></svg>