<?xml version="1.0" encoding="utf-8"?>
<!-- Generator: Adobe Illustrator 19.2.1, SVG Export Plug-In . SVG Version: 6.00 Build 0)  -->
<svg version="1.1" id="Layer_1" xmlns="http://www.w3.org/2000/svg" xmlns:xlink="http://www.w3.org/1999/xlink" x="0px" y="0px"
	 viewBox="0 0 32 32" style="enable-background:new 0 0 32 32;" xml:space="preserve">
<style type="text/css">
	.st0{fill:url(#SVGID_1_);}
	.st1{fill:url(#SVGID_2_);}
</style>
<linearGradient id="SVGID_1_" gradientUnits="userSpaceOnUse" x1="9.89" y1="-102.435" x2="9.89" y2="-73.625" gradientTransform="matrix(1 0 0 1 0 104)">
	<stop  offset="0" style="stop-color:#FFFFFF"/>
	<stop  offset="0.8622" style="stop-color:#FFFFFF;stop-opacity:0.5"/>
</linearGradient>
<path class="st0" d="M14.8,25.9C9.9,25.3,6,21.1,6,16c0-5.5,4.5-10,10-10c1.2,0,2.2-1,2.2-2.2s-1-2.2-2.2-2.2C8,1.6,1.6,8,1.6,16
	c0,7.6,5.9,13.8,13.3,14.4L14.8,25.9L14.8,25.9z"/>
<linearGradient id="SVGID_2_" gradientUnits="userSpaceOnUse" x1="22.6425" y1="-73.565" x2="22.6425" y2="-94.5242" gradientTransform="matrix(1 0 0 1 0 104)">
	<stop  offset="0.5204" style="stop-color:#FFFFFF;stop-opacity:0.5"/>
	<stop  offset="1" style="stop-color:#FFFFFF;stop-opacity:0"/>
</linearGradient>
<path class="st1" d="M30.4,16c0-3.4-1.2-6.8-3.5-9.4c-0.8-0.9-2.2-1-3.1-0.2c-0.9,0.8-1,2.2-0.2,3.1c1.5,1.8,2.4,4.1,2.4,6.5
	c0,5.5-4.5,10-10,10c-0.4,0-0.8-0.1-1.2-0.1v4.5c0.4,0,0.8,0.1,1.2,0.1C24,30.4,30.4,24,30.4,16z"/>
</svg>
