<svg id="Layer_1" data-name="Layer 1" xmlns="http://www.w3.org/2000/svg" xmlns:xlink="http://www.w3.org/1999/xlink" viewBox="0 0 28 28"><defs><style>.cls-1{fill:none;}.cls-2{clip-path:url(#clip-path);}.cls-3{fill:url(#linear-gradient);}.cls-4{fill:url(#linear-gradient-2);}.cls-5{fill:url(#linear-gradient-3);}.cls-6{fill:url(#linear-gradient-4);}</style><clipPath id="clip-path" transform="translate(-2 -2)"><path class="cls-1" d="M22.06,7h0a2.74,2.74,0,0,0,.17,3.36A8.4,8.4,0,1,1,14,7.85a2.74,2.74,0,0,0,2-2.69h0a2.79,2.79,0,0,0-3.42-2.73A14,14,0,1,0,26.46,6.7,2.8,2.8,0,0,0,22.06,7Z"/></clipPath><linearGradient id="linear-gradient" x1="10.4" y1="4.8" x2="10.4" y2="27.2" gradientUnits="userSpaceOnUse"><stop offset="0"/><stop offset="0.86" stop-opacity="0.5"/></linearGradient><linearGradient id="linear-gradient-2" x1="21.6" y1="27.2" x2="21.6" y2="6.72" gradientUnits="userSpaceOnUse"><stop offset="0.52" stop-opacity="0.5"/><stop offset="1" stop-opacity="0"/></linearGradient><linearGradient id="linear-gradient-3" x1="9" y1="2" x2="9" y2="30" gradientUnits="userSpaceOnUse"><stop offset="0" stop-color="#fff"/><stop offset="0.86" stop-color="#fff" stop-opacity="0.5"/></linearGradient><linearGradient id="linear-gradient-4" x1="23" y1="30" x2="23" y2="4.4" gradientUnits="userSpaceOnUse"><stop offset="0.52" stop-color="#fff" stop-opacity="0.5"/><stop offset="1" stop-color="#fff" stop-opacity="0"/></linearGradient></defs><title>Loading_Indicator_dobule_32</title><g class="cls-2"><path class="cls-3" d="M16,24.4A8.4,8.4,0,0,1,16,7.6V4.8a11.2,11.2,0,0,0,0,22.4V24.4Z" transform="translate(-2 -2)"/><path class="cls-4" d="M16,27.2A11.2,11.2,0,0,0,22.27,6.72L20.7,9A8.4,8.4,0,0,1,16,24.4v2.8Z" transform="translate(-2 -2)"/><path class="cls-5" d="M16,27.2A11.2,11.2,0,0,1,16,4.8V2a14,14,0,0,0,0,28V27.2Z" transform="translate(-2 -2)"/><path class="cls-6" d="M16,30A14,14,0,0,0,23.83,4.4L22.27,6.72A11.2,11.2,0,0,1,16,27.2V30Z" transform="translate(-2 -2)"/></g></svg>