<svg id="Layer_1" data-name="Layer 1" xmlns="http://www.w3.org/2000/svg" xmlns:xlink="http://www.w3.org/1999/xlink" viewBox="0 0 28.8 28.85"><defs><style>.cls-1{fill:url(#linear-gradient);}.cls-2{fill:url(#linear-gradient-2);}</style><linearGradient id="linear-gradient" x1="9.9" y1="136.43" x2="9.9" y2="107.63" gradientTransform="matrix(1, 0, 0, -1, 0, 138)" gradientUnits="userSpaceOnUse"><stop offset="0"/><stop offset="0.86" stop-opacity="0.5"/></linearGradient><linearGradient id="linear-gradient-2" x1="22.6" y1="107.61" x2="22.6" y2="128.53" gradientTransform="matrix(1, 0, 0, -1, 0, 138)" gradientUnits="userSpaceOnUse"><stop offset="0.52" stop-opacity="0.5"/><stop offset="1" stop-opacity="0"/></linearGradient></defs><title>Loading_Indicator_blk32</title><path class="cls-1" d="M14.8,25.9A10,10,0,0,1,16,6a2.22,2.22,0,0,0,2.2-2.2A2.22,2.22,0,0,0,16,1.6,14.34,14.34,0,0,0,1.6,16,14.48,14.48,0,0,0,14.9,30.4l-0.1-4.5h0Z" transform="translate(-1.6 -1.6)"/><path class="cls-2" d="M30.4,16a14.23,14.23,0,0,0-3.5-9.4,2.2,2.2,0,0,0-3.3,2.9A10.21,10.21,0,0,1,26,16,10,10,0,0,1,16,26c-0.4,0-.8-0.05-1.2-0.05l0.1,4.5c0.4,0,.7.05,1.1,0.05A14.45,14.45,0,0,0,30.4,16Z" transform="translate(-1.6 -1.6)"/></svg>