<svg xmlns="http://www.w3.org/2000/svg" width="16" height="16"><path fill="#FFFFFF" d="M15.732 1.57L14.43.267c-.36-.36-.938-.364-1.329.026l-1.444 1.444-9.773 9.774-1.849 4.004a.343.343 0 00.06.39.344.344 0 00.389.059l4.003-1.849 9.773-9.774a.002.002 0 000-.001l.002.001 1.443-1.444c.39-.39.386-.968.027-1.329zM.6 15.43l1.495-2.91 1.41 1.41L.6 15.43zm3.417-1.819l-1.569-1.57 9.774-9.773 1.568 1.57-9.773 9.773zm11.08-10.987l-.942.897-1.66-1.66.94-.899a.5.5 0 01.707 0l.954.955a.5.5 0 010 .707z"/></svg>