<?xml version="1.0" encoding="utf-8"?>
<!-- Generator: Adobe Illustrator 21.0.0, SVG Export Plug-In . SVG Version: 6.00 Build 0)  -->
<svg version="1.1" xmlns="http://www.w3.org/2000/svg" xmlns:xlink="http://www.w3.org/1999/xlink" x="0px" y="0px" width="16px"
	 height="16px" viewBox="0 0 16 16" enable-background="new 0 0 16 16" xml:space="preserve">
<g id="icon_Name">
</g>
<g id="icons">
	<path fill="#0079c1" d="M15.7318115,1.569519l-1.3018799-1.3018188c-0.3605957-0.3596191-0.9382324-0.3641968-1.3287964,0.0263672
		L11.6574097,1.737793l-9.7740479,9.774353l-1.8483887,4.003418c-0.0630493,0.1364136-0.0394897,0.2907104,0.0594482,0.3895874
		c0.0988159,0.098877,0.2531128,0.1223755,0.3895264,0.0594482l4.003479-1.8485107l9.7730713-9.774231
		c-0.0001221-0.0006104-0.0004883-0.0010376-0.0004883-0.0010376l0.001709,0.0012817l1.4436646-1.4437256
		C16.0959473,2.5078125,16.0914307,1.9301147,15.7318115,1.569519z M0.5994873,15.4296265l1.4950562-2.9089966l1.4095459,1.4085693
		L0.5994873,15.4296265z M4.0170288,13.6113281L2.447937,12.041687l9.7737427-9.7740479l1.5685425,1.5697021L4.0170288,13.6113281z
		 M15.0963745,2.6236572l-0.940918,0.8978271l-1.6613159-1.6613159l0.9408569-0.8978271
		c0.1953125-0.1952515,0.5119019-0.1952515,0.7071533,0l0.9542236,0.9542236
		C15.291626,2.1118164,15.291626,2.4284058,15.0963745,2.6236572z"/>
</g>
</svg>
