<?xml version="1.0" encoding="utf-8"?>
<!-- Generated by IcoMoon.io -->
<!DOCTYPE svg PUBLIC "-//W3C//DTD SVG 1.1//EN" "http://www.w3.org/Graphics/SVG/1.1/DTD/svg11.dtd">
<svg version="1.1" xmlns="http://www.w3.org/2000/svg" xmlns:xlink="http://www.w3.org/1999/xlink" width="32" height="32" viewBox="0 0 32 32">
<path fill="#FFFFFF" d="M28.199 14.818l3.385-2.318-0.883-2.717-4.1 0.113-1.445-1.986 1.375-3.865-2.31-1.678-3.25 2.5-2.336-0.758-1.16-3.934h-2.855l-1.16 3.934-2.336 0.758-3.25-2.5-2.31 1.678 1.375 3.865-1.445 1.986-4.1-0.113-0.883 2.717 3.383 2.318v2.457l-3.383 2.318 0.883 2.717 4.1-0.113 1.445 1.986-1.375 3.865 2.31 1.678 3.25-2.5 2.336 0.758 1.16 3.934h2.855l1.16-3.934 2.336-0.758 3.25 2.5 2.31-1.678-1.375-3.865 1.445-1.986 4.1 0.113 0.883-2.717-3.385-2.318v-2.457zM16.047 21.848c-3.203 0-5.801-2.598-5.801-5.801s2.598-5.801 5.801-5.801c3.203 0 5.801 2.598 5.801 5.801s-2.598 5.801-5.801 5.801z"></path>
</svg>
