<?xml version="1.0" encoding="utf-8"?>
<!-- Generator: Adobe Illustrator 19.2.1, SVG Export Plug-In . SVG Version: 6.00 Build 0)  -->
<svg version="1.1" xmlns="http://www.w3.org/2000/svg" xmlns:xlink="http://www.w3.org/1999/xlink" x="0px" y="0px"
	 viewBox="0 0 16 16" enable-background="new 0 0 16 16" xml:space="preserve">
<g id="icon_name">
</g>
<g id="icon">
	
		<rect x="6.9999328" y="5.0000138" transform="matrix(-1 0.0000256 -0.0000256 -1 15.0001507 16.9998341)" fill="#7F8183" width="1.0000679" height="6.9999967"/>
	
		<rect x="6.9999347" y="3.000015" transform="matrix(-1 0.0000256 -0.0000256 -1 15.0000267 6.9998379)" fill="#7F8183" width="1.0000679" height="0.9999995"/>
	<rect x="6" y="11" fill="#7F8183" width="3" height="1"/>
	<path fill="#7F8183" d="M7.5007935,0C3.364624,0,0,3.3642578,0,7.5S3.364624,15,7.5007935,15C11.6358643,15,15,11.6357422,15,7.5
		S11.6358643,0,7.5007935,0z M7.5009766,14C3.9160156,14,1,11.0839844,1,7.5S3.9160156,1,7.5009766,1
		C11.0849609,1,14,3.9160156,14,7.5S11.0849609,14,7.5009766,14z"/>
	<rect fill="none" width="16" height="16"/>
</g>
</svg>