<svg id="illustration" xmlns="http://www.w3.org/2000/svg" viewBox="0 0 200 110"><defs><style>.cls-1{fill:#fff;}.cls-1,.cls-2,.cls-3,.cls-4,.cls-7{stroke:#949494;stroke-miterlimit:10;}.cls-2{fill:#d6d6d6;}.cls-3,.cls-6{fill:#e7e7e7;}.cls-4,.cls-5{fill:#f4f4f4;}.cls-7{fill:none;}</style></defs><title>BA_illustration</title><rect class="cls-1" x="43.04" y="16.82" width="81.42" height="82.6" transform="matrix(1, -0.07, 0.07, 1, -3.96, 6.16)"/><rect class="cls-2" x="53.74" y="15.06" width="59" height="71.98" transform="translate(128.19 -35.64) rotate(85.88)"/><rect class="cls-3" x="47.62" y="28.58" width="17.33" height="54" transform="translate(-3.85 4.18) rotate(-4.12)"/><rect class="cls-4" x="56.98" y="38.79" width="21.02" height="43" transform="matrix(1, -0.07, 0.07, 1, -4.15, 5)"/><rect class="cls-4" x="49.15" y="74.41" width="71.81" height="6.09" transform="translate(-5.34 6.31) rotate(-4.12)"/><rect class="cls-2" x="49.26" y="77.4" width="71.81" height="3.09" transform="translate(-5.45 6.32) rotate(-4.12)"/><polygon class="cls-5" points="121.85 13.47 68.94 17.27 62.41 89.53 127.75 95.43 121.85 13.47"/><polygon class="cls-6" points="63.04 82.59 121.79 78.36 117.48 18.51 68.51 22.04 63.04 82.59"/><rect class="cls-1" x="70.85" y="6.68" width="81.42" height="82.6" transform="translate(4.77 -9.84) rotate(5.16)"/><rect class="cls-1" x="82.7" y="4.94" width="59" height="71.98" transform="translate(163.05 -67.13) rotate(95.16)"/><polygon class="cls-3" points="74.93 53.77 146.58 60.73 145.42 73.27 73.7 67.08 74.93 53.77"/><path class="cls-3" d="M95.72,14.61c-2.24-.22-3.5.62-3.65,2.19L88.06,58l45.76,4.45,4-41.15a2.61,2.61,0,0,0-2.12-2.76Z"/><polyline class="cls-1" points="137.69 22.66 137.6 23.53 142.18 34.83 85.27 29.3 92 18.47 92.06 17.89"/><polyline class="cls-7" points="104.12 31 107.05 20.03 107.2 18.4"/><polyline class="cls-7" points="124.35 32.96 123.59 21.64 123.75 20.01"/><path class="cls-7" d="M90.2,18.27a1.87,1.87,0,0,1,2-1.66l26.58,2.58"/><line class="cls-7" x1="120.8" y1="19.39" x2="126.1" y2="19.9"/><rect class="cls-4" x="93.58" y="40.83" width="24.27" height="13.3" transform="translate(48.22 148.1) rotate(-84.45)"/><rect class="cls-4" x="106.81" y="42.12" width="24.27" height="13.3" transform="translate(58.89 162.44) rotate(-84.45)"/><rect class="cls-1" x="104.91" y="38.16" width="5.32" height="7.98" transform="translate(4.59 -10.21) rotate(5.55)"/><rect class="cls-1" x="115.5" y="39.19" width="5.32" height="7.98" transform="translate(4.73 -11.23) rotate(5.55)"/><path class="cls-7" d="M139.36,23.05a1.87,1.87,0,0,0-1.68-2l-9.6-.93"/><polygon class="cls-4" points="74.32 60.08 145.97 67.04 145.38 73.64 73.7 67.08 74.32 60.08"/><polygon class="cls-2" points="74.05 62.85 145.7 69.82 145.37 73.8 73.7 67.08 74.05 62.85"/></svg>