<svg version="1.1" xmlns="http://www.w3.org/2000/svg" xmlns:xlink="http://www.w3.org/1999/xlink" x="0px" y="0px" width="16px"
	 height="16px" viewBox="0 0 16 16" enable-background="new 0 0 16 16" xml:space="preserve">
<g id="icon_Name">
</g>
<g id="icons">
	<path fill="#FFFFFF" d="M12,0C9.7910156,0,8.0004883,1.7910156,8.0004883,4L8,7H1C0.4500122,7,0,7.4500122,0,8v7
		c0,0.5499878,0.4500122,1,1,1h10c0.5499878,0,1-0.4500122,1-1V8c0-0.5499878-0.4500122-1-1-1V4c0-0.5518188,0.4478149-1,1-1
		s1.0004883,0.4481812,1.0004883,1v2H16V4C16,1.7910156,14.2089844,0,12,0z M11,15H1V8h10V15z M15,5h-1V4
		c0-1.1044922-0.8955078-2-2-2s-2,0.8955078-2,2v3H9V4c0-1.656189,1.3427734-3,2.9995117-3c1.6567993,0,3,1.343811,3,3H15V5z M6,14
		H5V9h1v1h1v1H6v1h1v1H6V14z"/>
</g>
</svg>
