<?xml version="1.0" encoding="utf-8"?>
<!-- Generator: Adobe Illustrator 18.1.0, SVG Export Plug-In . SVG Version: 6.00 Build 0)  -->
<!DOCTYPE svg PUBLIC "-//W3C//DTD SVG 1.1//EN" "http://www.w3.org/Graphics/SVG/1.1/DTD/svg11.dtd">
<svg version="1.1" xmlns="http://www.w3.org/2000/svg" xmlns:xlink="http://www.w3.org/1999/xlink" x="0px" y="0px" width="32px"
	 height="32px" viewBox="0 0 32 32" enable-background="new 0 0 32 32" xml:space="preserve">
<g id="Icons">
	<polygon fill="#FFFFFF" points="1.623,17 18.943,17 20.565,17 10.292,6.707 0,17 	"/>
	<path fill="#E6E7E8" d="M10.237,8.282c0,0,1.639,2.162,1.639,4.273c0,1.815-1.44,3.4-4.551,4.445h8.148
		c1.737-0.256,2.922-0.539,2.922-0.539h0.376l-8.534-8.532V8.282z"/>
	<polygon fill="#808284" points="2.312,16 10.265,8.018 18.248,16 19.559,16 10.265,6.707 1.001,16 	"/>
	<polygon fill="#FFFFFF" points="31.598,21 16.789,6.188 2,21 	"/>
	<path fill="#E6E7E8" d="M16.745,6.147v0.897c0,0,3.36,3.933,3.36,6.935c0,3.359-2.87,5.902-7.439,7.02
		c0.005,0.001,18.932,0,18.932,0L16.745,6.147z"/>
	<polygon fill="#808284" points="3.246,21 16.789,7.434 30.352,21 31.598,21 16.789,6.188 2,21 	"/>
	<polygon fill="#FFFFFF" points="30,25.999 18.868,14.868 7.772,25.999 	"/>
	<path fill="#E6E7E8" d="M18.926,14.926v1.309c0,0,2.505,2.293,2.505,4.531c0,2.504-2.139,4.401-5.546,5.233
		c0.003,0.001,14.115,0,14.115,0L18.926,14.926z"/>
	<polygon fill="#808284" points="9.085,25.999 18.868,16.18 28.689,25.999 30,25.999 18.868,14.868 7.772,25.999 	"/>
</g>
<g id="Icon_Name">
</g>
</svg>
