<?xml version="1.0" encoding="utf-8"?>
<!-- Generator: Adobe Illustrator 18.1.0, SVG Export Plug-In . SVG Version: 6.00 Build 0)  -->
<!DOCTYPE svg PUBLIC "-//W3C//DTD SVG 1.1//EN" "http://www.w3.org/Graphics/SVG/1.1/DTD/svg11.dtd">
<svg version="1.1" xmlns="http://www.w3.org/2000/svg" xmlns:xlink="http://www.w3.org/1999/xlink" x="0px" y="0px" width="32px"
	 height="32px" viewBox="0 0 32 32" enable-background="new 0 0 32 32" xml:space="preserve">
<g id="Icons">
	<path fill="#808284" d="M25,13.999v0.281h-8.016L16.4,13.93c-0.2-0.121-0.605-0.121-0.805,0l-0.583,0.35H7v-0.281H6v0.281v1.062
		v5.521c-0.001,0.01-0.001,0.02,0,0.03v0.105h0.034c0.033,0.074,0.087,0.145,0.184,0.203l9.378,5.627c0.2,0.121,0.604,0.121,0.805,0
		l9.379-5.627c0.097-0.059,0.15-0.129,0.184-0.203H26v-0.113c0-0.004,0-0.008,0-0.012v-6.875H25z"/>
	<path fill="#939598" d="M25.15,20.588l-9.187,5.512l0.035-0.03c-0.021,0-0.035-0.002-0.039-0.003L6.85,20.59v-5.46h8.398
		l0.785-0.472l0.514,0.351l0.202,0.121h8.401V20.588z"/>
	<rect x="6" y="15" fill="#808284" width="1" height="6"/>
	<rect x="25" y="15" fill="#808284" width="1" height="6"/>
	<rect x="3" y="12.999" fill="#808284" width="1" height="12"/>
	<polygon fill="#808284" points="5,28.999 2,28.999 3,24.999 4,24.999 	"/>
	<path fill="#939598" d="M31.422,11.026L16.619,2.144c-0.316-0.191-0.955-0.191-1.271,0L0.545,11.026
		c-0.467,0.277-0.467,0.734,0,1.016l14.803,8.883c0.316,0.191,0.955,0.191,1.271,0l14.803-8.883
		C31.891,11.761,31.891,11.308,31.422,11.026z M16.104,20.067c0.007-0.004,0.006-0.005-0.002-0.005
		c-0.016,0-0.061,0.006-0.119,0.006c-0.085,0-0.143-0.014-0.155-0.019L1.643,11.534l14.22-8.533
		c-0.007,0.004-0.006,0.005,0.002,0.005C15.88,3.006,15.925,3,15.983,3c0.085,0,0.143,0.014,0.155,0.019l14.186,8.516L16.104,20.067
		z"/>
	<path fill="#FFFFFF" d="M16.104,20.067c0.007-0.004,0.006-0.005-0.002-0.005c-0.016,0-0.061,0.006-0.119,0.006
		c-0.085,0-0.143-0.014-0.155-0.019L1.643,11.534l14.22-8.533c-0.007,0.004-0.006,0.005,0.002,0.005C15.88,3.006,15.925,3,15.983,3
		c0.085,0,0.143,0.014,0.155,0.019l14.186,8.516L16.104,20.067z"/>
	<polygon fill="#E6E7E8" points="15.985,4.093 3.586,11.534 15.981,18.975 28.381,11.534 	"/>
</g>
<g id="Icon_Name">
</g>
</svg>
