<?xml version="1.0" encoding="utf-8"?>
<!-- Generator: Adobe Illustrator 18.1.0, SVG Export Plug-In . SVG Version: 6.00 Build 0)  -->
<!DOCTYPE svg PUBLIC "-//W3C//DTD SVG 1.1//EN" "http://www.w3.org/Graphics/SVG/1.1/DTD/svg11.dtd">
<svg version="1.1" xmlns="http://www.w3.org/2000/svg" xmlns:xlink="http://www.w3.org/1999/xlink" x="0px" y="0px" width="32px"
	 height="32px" viewBox="0 0 32 32" enable-background="new 0 0 32 32" xml:space="preserve">
<g id="Icons">
	<polygon fill="#808284" points="16,1 15,1 15,8 16,8 16,4 20,4 20,1 	"/>
	<rect x="6" y="13" fill="#939598" width="2" height="13"/>
	<rect x="12" y="13" fill="#939598" width="2" height="13"/>
	<rect x="18" y="13" fill="#939598" width="2" height="13"/>
	<rect x="24" y="13" fill="#939598" width="2" height="13"/>
	<polygon fill="#808284" points="16,7 3,10 3,13 29,13 29,10 	"/>
	<polygon fill="#E6E7E8" points="3.85,12.15 3.85,10.649 16.009,7.879 28.15,10.664 28.15,12.15 	"/>
	<polygon fill="#808284" points="28,26 26,26 24,26 18,26 16,26 11,26 7,26 4,26 4,31 28,31 	"/>
	<rect x="5" y="27" fill="#E6E7E8" width="22" height="4"/>
	<rect x="2" y="31" fill="#808284" width="28" height="1"/>
</g>
<g id="Icon_Name">
</g>
</svg>
