<?xml version="1.0" encoding="utf-8"?>
<!-- Generator: Adobe Illustrator 18.1.0, SVG Export Plug-In . SVG Version: 6.00 Build 0)  -->
<!DOCTYPE svg PUBLIC "-//W3C//DTD SVG 1.1//EN" "http://www.w3.org/Graphics/SVG/1.1/DTD/svg11.dtd">
<svg version="1.1" xmlns="http://www.w3.org/2000/svg" xmlns:xlink="http://www.w3.org/1999/xlink" x="0px" y="0px" width="32px"
	 height="32px" viewBox="0 0 32 32" enable-background="new 0 0 32 32" xml:space="preserve">
<g id="Icons">
	<polygon fill="#808284" points="27,15 27,12 26,12 26,10 23,10 23,6 22,6 22,10 19,10 19,12 18,12 18,15 17.002,15 17.002,32 
		28,32 28,15 	"/>
	<polygon fill="#808284" points="14,6 14,4 5,4 5,6 4,6 4,32 15,32 15,6 	"/>
	<rect x="5" y="7" fill="#E6E7E8" width="9" height="24"/>
	<rect x="18" y="16" fill="#E6E7E8" width="9" height="15"/>
	<g>
		<rect x="19" y="18" fill="#808284" width="1" height="1"/>
		<rect x="23" y="18" fill="#808284" width="1" height="1"/>
		<rect x="25" y="18" fill="#808284" width="1" height="1"/>
		<rect x="19" y="20" fill="#808284" width="1" height="1"/>
		<rect x="23" y="20" fill="#808284" width="1" height="1"/>
		<rect x="25" y="20" fill="#808284" width="1" height="1"/>
		<rect x="19" y="22" fill="#808284" width="1" height="1"/>
		<rect x="23" y="22" fill="#808284" width="1" height="1"/>
		<rect x="25" y="22" fill="#808284" width="1" height="1"/>
		<rect x="19" y="24" fill="#808284" width="1" height="1"/>
		<rect x="23" y="24" fill="#808284" width="1" height="1"/>
		<rect x="25" y="24" fill="#808284" width="1" height="1"/>
		<rect x="19" y="26" fill="#808284" width="1" height="1"/>
		<rect x="23" y="26" fill="#808284" width="1" height="1"/>
		<rect x="25" y="26" fill="#808284" width="1" height="1"/>
		<rect x="19" y="28" fill="#808284" width="1" height="1"/>
		<rect x="23" y="28" fill="#808284" width="1" height="1"/>
		<rect x="25" y="28" fill="#808284" width="1" height="1"/>
		<rect x="21" y="18" fill="#808284" width="1" height="1"/>
		<rect x="21" y="20" fill="#808284" width="1" height="1"/>
		<rect x="21" y="22" fill="#808284" width="1" height="1"/>
		<rect x="21" y="24" fill="#808284" width="1" height="1"/>
		<rect x="21" y="26" fill="#808284" width="1" height="1"/>
		<rect x="21" y="28" fill="#808284" width="1" height="1"/>
	</g>
	<rect x="5" y="7" fill="#FFFFFF" width="1" height="24"/>
	<rect x="18" y="16" fill="#FFFFFF" width="1" height="15"/>
	<rect x="19" y="13" fill="#E6E7E8" width="7" height="2"/>
	<rect x="20" y="11" fill="#E6E7E8" width="5" height="1"/>
	<rect x="19" y="13" fill="#FFFFFF" width="1" height="2"/>
	<rect x="20" y="11" fill="#FFFFFF" width="3" height="1"/>
	<g>
		<rect x="10" y="8" fill="#939598" width="3" height="1"/>
		<rect x="6" y="8" fill="#939598" width="3" height="1"/>
		<rect x="10" y="10" fill="#939598" width="3" height="1"/>
		<rect x="6" y="10" fill="#939598" width="3" height="1"/>
		<rect x="10" y="12" fill="#939598" width="3" height="1"/>
		<rect x="6" y="12" fill="#939598" width="3" height="1"/>
		<rect x="10" y="14" fill="#939598" width="3" height="1"/>
		<rect x="6" y="14" fill="#939598" width="3" height="1"/>
		<rect x="10" y="16" fill="#939598" width="3" height="1"/>
		<rect x="6" y="16" fill="#939598" width="3" height="1"/>
		<rect x="10" y="18" fill="#939598" width="3" height="1"/>
		<rect x="6" y="18" fill="#939598" width="3" height="1"/>
		<rect x="10" y="20" fill="#939598" width="3" height="1"/>
		<rect x="6" y="20" fill="#939598" width="3" height="1"/>
		<rect x="10" y="22" fill="#939598" width="3" height="1"/>
		<rect x="6" y="22" fill="#939598" width="3" height="1"/>
		<rect x="10" y="24" fill="#939598" width="3" height="1"/>
		<polygon fill="#939598" points="6,24 6,24 6,25 6,25 7,25 9,25 9,24 7,24 		"/>
		<rect x="10" y="26" fill="#939598" width="3" height="1"/>
		<rect x="6" y="26" fill="#939598" width="3" height="1"/>
		<rect x="10" y="28" fill="#939598" width="3" height="1"/>
		<rect x="6" y="28" fill="#939598" width="3" height="1"/>
	</g>
	<rect x="6" y="5" fill="#FFFFFF" width="7" height="1"/>
	<rect x="7" y="5" fill="#E6E7E8" width="6" height="1"/>
	<polygon fill="#808284" points="2,31.125 2,32 11.099,32 30,32 30,31.125 	"/>
</g>
<g id="Icon_Name">
</g>
</svg>
