<?xml version="1.0" encoding="utf-8"?>
<!-- Generator: Adobe Illustrator 18.1.0, SVG Export Plug-In . SVG Version: 6.00 Build 0)  -->
<!DOCTYPE svg PUBLIC "-//W3C//DTD SVG 1.1//EN" "http://www.w3.org/Graphics/SVG/1.1/DTD/svg11.dtd">
<svg version="1.1" xmlns="http://www.w3.org/2000/svg" xmlns:xlink="http://www.w3.org/1999/xlink" x="0px" y="0px" width="32px"
	 height="32px" viewBox="0 0 32 32" enable-background="new 0 0 32 32" xml:space="preserve">
<g id="Icons">
	<path fill="#808284" d="M10.32,6.577c-0.194-0.735-0.676-1.838-1.385-3.192c0,0-1.179,2.927-1.423,3.577
		c-0.335,0.893,0.359,1.685,0.97,1.945v-0.71h1v0.76C10.127,8.878,10.841,8.549,10.32,6.577z"/>
	<g>
		<path fill="#808284" d="M15.936,3.385c0,0-1.179,2.927-1.423,3.577c-0.335,0.893,0.359,1.685,0.97,1.945v-0.71h1v0.76
			c0.644-0.079,1.358-0.407,0.837-2.379C17.126,5.842,16.645,4.739,15.936,3.385z"/>
		<path fill="#808284" d="M24.32,6.577c-0.194-0.735-0.676-1.838-1.385-3.192c0,0-1.179,2.927-1.423,3.577
			c-0.335,0.893,0.359,1.685,0.97,1.945v-0.71h1v0.76C24.126,8.878,24.841,8.549,24.32,6.577z"/>
	</g>
	<rect x="8" y="10" fill="#CCCCCC" width="2" height="7"/>
	<rect x="15" y="10" fill="#CCCCCC" width="2" height="8"/>
	<rect x="22" y="10" fill="#CCCCCC" width="2" height="8"/>
	<path fill="#CCCCCC" d="M6,22c0.951,0,1.813-0.346,2.5-0.901C9.187,21.654,10.049,22,11,22s1.814-0.346,2.5-0.901
		C14.186,21.654,15.049,22,16,22c0.951,0,1.813-0.346,2.5-0.901C19.187,21.654,20.049,22,21,22s1.813-0.346,2.5-0.901
		C24.187,21.654,25.049,22,26,22c2.209,0,4-1.791,4-4c0-1.657-1.343-3-3-3H5c-1.657,0-3,1.343-3,3C2,20.209,3.791,22,6,22z"/>
	<path fill="#939598" d="M26,23c-0.885,0-1.737-0.235-2.5-0.686C22.737,22.765,21.885,23,21,23s-1.737-0.235-2.5-0.686
		C17.737,22.765,16.885,23,16,23s-1.737-0.235-2.5-0.686C12.737,22.765,11.885,23,11,23s-1.737-0.235-2.5-0.686
		C7.737,22.765,6.885,23,6,23c-0.712,0-1.386-0.154-2-0.424V28v2h24v-2v-5.424C27.386,22.846,26.712,23,26,23z"/>
	<rect x="2" y="31" fill="#808284" width="28" height="1"/>
</g>
<g id="Icon_Name">
</g>
</svg>
