<?xml version="1.0" encoding="utf-8"?>
<!-- Generator: Adobe Illustrator 18.1.0, SVG Export Plug-In . SVG Version: 6.00 Build 0)  -->
<!DOCTYPE svg PUBLIC "-//W3C//DTD SVG 1.1//EN" "http://www.w3.org/Graphics/SVG/1.1/DTD/svg11.dtd">
<svg version="1.1" xmlns="http://www.w3.org/2000/svg" xmlns:xlink="http://www.w3.org/1999/xlink" x="0px" y="0px" width="32px"
	 height="32px" viewBox="0 0 32 32" enable-background="new 0 0 32 32" xml:space="preserve">
<g id="Icons">
	<rect x="20" y="6" fill="#939598" width="2" height="7"/>
	<rect x="10" y="6" fill="#939598" width="2" height="7"/>
	<path fill="#939598" d="M10,6"/>
	<polygon fill="#939598" points="12,4 10,6 12,6 	"/>
	<rect x="12" y="4" fill="#939598" width="8" height="2"/>
	<polygon fill="#939598" points="20,4 22,6 20,6 	"/>
	<polygon fill="#808284" points="1,8 1,15.803 14.999,18.898 17,18.898 31,15.803 31,8 	"/>
	<polygon fill="#E6E7E8" points="15.117,17.898 2,15.013 2,9 30,9 30,15.013 16.883,17.898 	"/>
	<polygon fill="#808284" points="18,20.19 18,23 14,23 14,20.19 1,17.352 1,28 31,28 31,17.352 	"/>
	<polygon fill="#939598" points="2,27 2,18.615 13,20.98 13,24 19,24 19,20.98 30,18.615 30,27 	"/>
	<rect x="14.999" y="19" fill="#939598" width="2" height="3"/>
</g>
<g id="Icon_Name">
</g>
</svg>
