<?xml version="1.0" encoding="utf-8"?>
<!-- Generator: Adobe Illustrator 18.1.0, SVG Export Plug-In . SVG Version: 6.00 Build 0)  -->
<!DOCTYPE svg PUBLIC "-//W3C//DTD SVG 1.1//EN" "http://www.w3.org/Graphics/SVG/1.1/DTD/svg11.dtd">
<svg version="1.1" xmlns="http://www.w3.org/2000/svg" xmlns:xlink="http://www.w3.org/1999/xlink" x="0px" y="0px" width="32px"
	 height="32px" viewBox="0 0 32 32" enable-background="new 0 0 32 32" xml:space="preserve">
<g id="Icons">
	<path fill="#808284" d="M1.999,28c-0.715,0-1.376-0.32-1.73-0.938c-0.357-0.621-0.357-1.382,0-2.002L12.271,1.191
		c0.355-0.617,1.016-1,1.731-1c0.715,0,1.376,0.383,1.733,1L27.734,25.06c0.355,0.62,0.355,1.381-0.002,2.002
		C27.377,27.68,26.716,28,26.001,28H1.999z"/>
	<path fill="#FFFFFF" d="M26.001,27.06H2c-0.357,0-0.686-0.19-0.866-0.498c-0.178-0.312-0.178-0.691,0-1.003L13.135,1.691
		c0.18-0.309,0.509-0.5,0.866-0.5s0.685,0.191,0.866,0.5l12,23.868c0.177,0.311,0.177,0.691,0,1.003
		C26.688,26.87,26.358,27.06,26.001,27.06L26.001,27.06z"/>
	<polygon fill="#E6E7E8" points="2,26.06 14.028,2.141 26.001,26.06 	"/>
	<path fill-rule="evenodd" clip-rule="evenodd" fill="#FFFFFF" d="M13.001,20c-0.552,0-1-0.447-1-1V9c0-0.553,0.448-1,1-1h2
		c0.552,0,1,0.447,1,1v10c0,0.553-0.448,1-1,1H13.001z"/>
	<rect x="13.001" y="9" fill-rule="evenodd" clip-rule="evenodd" fill="#808284" width="2" height="10"/>
	<path fill-rule="evenodd" clip-rule="evenodd" fill="#FFFFFF" d="M13.001,24c-0.552,0-1-0.447-1-1v-2c0-0.553,0.448-1,1-1h2
		c0.552,0,1,0.447,1,1v2c0,0.553-0.448,1-1,1H13.001z"/>
	<rect x="13.001" y="21" fill-rule="evenodd" clip-rule="evenodd" fill="#808284" width="2" height="2"/>
	<path fill="#FFFFFF" d="M26.001,28c0.715,0,1.376-0.32,1.731-0.938c0.357-0.621,0.357-1.382,0.002-2.002l-5.602-11.144
		C20.847,14.822,20,16.312,20,18c0,0.5,0.096,0.974,0.233,1.43C18.916,20.084,18,21.431,18,23v5H26.001z"/>
	<path fill="#808284" d="M28,21h-6c-1.104,0-2,0.895-2,2v2v2v2c0,0.553,0.447,1,1,1h1v1c0,0.553,0.447,1,1,1h4c0.553,0,1-0.447,1-1
		v-1h1c0.553,0,1-0.447,1-1v-2v-2v-2C30,21.895,29.104,21,28,21z"/>
	<path fill="#E6E7E8" d="M28,22h-6c-0.551,0-1,0.448-1,1v6h2v2h4v-2h2v-6C29,22.448,28.551,22,28,22z"/>
	<circle fill="#808284" cx="25" cy="18" r="3"/>
	<circle fill="#E6E7E8" cx="25" cy="18" r="2"/>
	<rect x="22" y="24" fill="#939598" width="1" height="5"/>
	<rect x="27" y="24" fill="#939598" width="1" height="5"/>
</g>
<g id="Icon_Name">
</g>
</svg>
