<?xml version="1.0" encoding="utf-8"?>
<!-- Generator: Adobe Illustrator 18.1.0, SVG Export Plug-In . SVG Version: 6.00 Build 0)  -->
<!DOCTYPE svg PUBLIC "-//W3C//DTD SVG 1.1//EN" "http://www.w3.org/Graphics/SVG/1.1/DTD/svg11.dtd">
<svg version="1.1" xmlns="http://www.w3.org/2000/svg" xmlns:xlink="http://www.w3.org/1999/xlink" x="0px" y="0px" width="32px"
	 height="32px" viewBox="0 0 32 32" enable-background="new 0 0 32 32" xml:space="preserve">
<g id="Icons">
	<path fill="#808284" d="M30.876,20.869c0.256,0.998-0.346,2.016-1.344,2.271L6.935,28.937c-0.997,0.257-2.014-0.346-2.27-1.343
		l-3.71-14.463C0.698,12.132,1.3,11.115,2.298,10.86l22.598-5.797c0.997-0.257,2.014,0.345,2.271,1.343L30.876,20.869z"/>
	<path fill="#FFFFFF" d="M6.703,28.032c-0.498,0.129-1.008-0.173-1.136-0.671l-3.71-14.462C1.73,12.4,2.031,11.892,2.53,11.763
		l22.597-5.795c0.498-0.129,1.008,0.173,1.136,0.671l3.71,14.462c0.128,0.498-0.174,1.008-0.673,1.137L6.703,28.032z"/>
	
		<rect x="4.981" y="10.074" transform="matrix(-0.9686 0.2485 -0.2485 -0.9686 35.5551 29.5123)" fill="#E6E7E8" width="21.868" height="13.852"/>
	
		<rect x="2.622" y="11.488" transform="matrix(0.9686 -0.2485 0.2485 0.9686 -3.0728 4.2294)" fill="#808284" width="25.194" height="5.599"/>
	
		<rect x="23.615" y="17.52" transform="matrix(0.9686 -0.2485 0.2485 0.9686 -3.9241 6.8183)" fill="#808284" width="2.869" height="2.869"/>
</g>
<g id="Icon_Name">
</g>
</svg>
