<?xml version="1.0" encoding="utf-8"?>
<!-- Generator: Adobe Illustrator 18.1.0, SVG Export Plug-In . SVG Version: 6.00 Build 0)  -->
<!DOCTYPE svg PUBLIC "-//W3C//DTD SVG 1.1//EN" "http://www.w3.org/Graphics/SVG/1.1/DTD/svg11.dtd">
<svg version="1.1" xmlns="http://www.w3.org/2000/svg" xmlns:xlink="http://www.w3.org/1999/xlink" x="0px" y="0px" width="32px"
	 height="32px" viewBox="0 0 32 32" enable-background="new 0 0 32 32" xml:space="preserve">
<g id="Icons">
	<path fill="#808284" d="M18.968,23.792c-5.686-1.092-9.423-6.605-8.332-12.291c0.023-0.117,0.052-0.233,0.081-0.348l0.257-1.026
		l-0.07-0.019l0.015-0.081l20.624,3.959l-0.053-0.01l-0.164,1.04c-0.028,0.208-0.043,0.326-0.066,0.443
		C30.167,21.146,24.654,24.884,18.968,23.792z"/>
	<path fill="#E6E7E8" d="M20.952,23.132c-0.608,0-1.222-0.059-1.824-0.175c-5.225-1.003-8.66-6.07-7.657-11.296
		c0.017-0.089,0.039-0.177,0.061-0.263l0.093-0.37l18.897,3.628l-0.036,0.229c-0.032,0.233-0.043,0.324-0.061,0.415
		C29.553,19.838,25.569,23.132,20.952,23.132z"/>
	<path fill="#FFFFFF" d="M28.669,20.574c-0.28-0.173-0.618-0.331-1.039-0.457c-0.399-0.12-0.821-0.181-1.253-0.181
		c-1.462,0-2.809,0.676-3.998,1.272c-0.542,0.271-1.054,0.528-1.481,0.671c-0.083,0.027-0.216,0.062-0.415,0.095
		c0.593-0.758,0.829-1.774,0.6-2.831c-0.337-1.557-1.577-2.644-3.014-2.644c-0.709,0-1.404,0.251-2.064,0.746
		c-0.94,0.705-1.964,1.049-3.127,1.049c-0.416,0-0.851-0.045-1.31-0.131c1.414,2.823,4.067,4.988,7.4,5.628
		C22.667,24.502,26.286,23.159,28.669,20.574z"/>
	<path fill="#939598" d="M5.833,21.36c0.194,0,1.533-1.761,3.885-1.294c2.41,0.479,4.855,0.128,7.186-1.62
		c2.331-1.748,3.885,2.137,1.748,3.107c-2.137,0.972-2.913,1.749-2.913,1.749s3.885,0.582,5.633,0
		c1.748-0.583,3.885-2.331,5.827-1.749c1.942,0.583,1.166,1.749,0.194,2.331c-0.971,0.583-6.951,5.671-21.518,4.506l-0.042-0.232
		V21.36z"/>
	<path fill="#939598" d="M9.181,25.363l-2.751-4.411c0,0-0.019,0.012-0.054,0.032c-0.338,0.195-2.577,1.356-5.331,1.356v5.568
		c0,0,2.849,0.538,6.349,0.538S9.271,25.34,9.181,25.363z"/>
	<circle fill="#939598" cx="22.5" cy="8.5" r="1.5"/>
	<circle fill="#939598" cx="26.6" cy="7.601" r="1.5"/>
	<circle fill="#939598" cx="30.5" cy="4.5" r="1.5"/>
	<circle fill="#939598" cx="25.5" cy="2.5" r="1.5"/>
</g>
<g id="Icon_Name">
</g>
</svg>
