<?xml version="1.0" encoding="utf-8"?>
<!-- Generator: Adobe Illustrator 18.1.0, SVG Export Plug-In . SVG Version: 6.00 Build 0)  -->
<!DOCTYPE svg PUBLIC "-//W3C//DTD SVG 1.1//EN" "http://www.w3.org/Graphics/SVG/1.1/DTD/svg11.dtd">
<svg version="1.1" xmlns="http://www.w3.org/2000/svg" xmlns:xlink="http://www.w3.org/1999/xlink" x="0px" y="0px" width="32px"
	 height="32px" viewBox="0 0 32 32" enable-background="new 0 0 32 32" xml:space="preserve">
<g id="Icons">
	<g>
		<rect x="20" y="17" fill="#CCCCCC" width="2" height="2"/>
		<rect x="11" y="8" fill="#CCCCCC" width="2" height="2"/>
		<rect x="8" y="8" fill="#CCCCCC" width="2" height="2"/>
		<rect x="17" y="17" fill="#CCCCCC" width="2" height="2"/>
		<rect x="14" y="8" fill="#CCCCCC" width="2" height="2"/>
		<rect x="20" y="11" fill="#CCCCCC" width="2" height="2"/>
		<rect x="20" y="14" fill="#CCCCCC" width="2" height="2"/>
		<rect x="8" y="5" fill="#CCCCCC" width="2" height="2"/>
		<rect x="17" y="8" fill="#CCCCCC" width="2" height="2"/>
		<rect x="5" y="20" fill="#CCCCCC" width="2" height="2"/>
		<path fill="#CCCCCC" d="M5.405,7H7V5.405C6.422,5.889,5.889,6.422,5.405,7z"/>
		<rect x="5" y="17" fill="#CCCCCC" width="2" height="2"/>
		<rect x="8" y="20" fill="#CCCCCC" width="2" height="2"/>
		<path fill="#CCCCCC" d="M7,24.595V23H5.405C5.889,23.578,6.422,24.111,7,24.595z"/>
		<rect x="5" y="8" fill="#CCCCCC" width="2" height="2"/>
		<rect x="5" y="11" fill="#808284" width="2" height="2"/>
		<rect x="5" y="14" fill="#CCCCCC" width="2" height="2"/>
		<rect x="8" y="23" fill="#CCCCCC" width="2" height="2"/>
		<rect x="20" y="8" fill="#CCCCCC" width="2" height="2"/>
		<rect x="14" y="14" fill="#CCCCCC" width="2" height="2"/>
		<rect x="11" y="14" fill="#CCCCCC" width="2" height="2"/>
		<rect x="20" y="5" fill="#808284" width="2" height="2"/>
		<rect x="17" y="14" fill="#CCCCCC" width="2" height="2"/>
		<path fill="#CCCCCC" d="M24.595,7C24.111,6.422,23.578,5.889,23,5.405V7H24.595z"/>
		<rect x="14" y="17" fill="#CCCCCC" width="2" height="2"/>
		<path fill="#808284" d="M4,14H2.55c-0.026,0.331-0.051,0.662-0.051,1s0.024,0.669,0.051,1H4V14z"/>
		<path fill="#CCCCCC" d="M26,16h1.45c0.026-0.331,0.051-0.662,0.051-1s-0.024-0.669-0.051-1H26V16z"/>
		<rect x="11" y="17" fill="#CCCCCC" width="2" height="2"/>
		<rect x="8" y="14" fill="#CCCCCC" width="2" height="2"/>
		<rect x="11" y="11" fill="#CCCCCC" width="2" height="2"/>
		<rect x="8" y="11" fill="#CCCCCC" width="2" height="2"/>
		<rect x="14" y="11" fill="#CCCCCC" width="2" height="2"/>
		<rect x="17" y="11" fill="#CCCCCC" width="2" height="2"/>
		<path fill="#CCCCCC" d="M26,10h0.45C26.31,9.683,26.164,9.37,26,9.067V10z"/>
		<path fill="#CCCCCC" d="M13,26h-2v0.833c0.644,0.219,1.313,0.381,2,0.492V26z"/>
		<path fill="#CCCCCC" d="M10,26H9.067C9.37,26.164,9.683,26.31,10,26.45V26z"/>
		<rect x="11" y="23" fill="#CCCCCC" width="2" height="2"/>
		<path fill="#CCCCCC" d="M4,20H3.55c0.14,0.317,0.286,0.63,0.45,0.933V20z"/>
		<path fill="#CCCCCC" d="M4,13v-2H3.167c-0.219,0.644-0.381,1.314-0.492,2H4z"/>
		<path fill="#CCCCCC" d="M4,10V9.067C3.836,9.37,3.689,9.683,3.55,10H4z"/>
		<path fill="#CCCCCC" d="M4,19v-2H2.675c0.111,0.687,0.273,1.355,0.492,2H4z"/>
		<rect x="14" y="23" fill="#CCCCCC" width="2" height="2"/>
		<path fill="#CCCCCC" d="M20,26v0.45c0.317-0.14,0.63-0.286,0.933-0.45H20z"/>
		<path fill="#CCCCCC" d="M14,4h2V2.55c-0.331-0.026-0.662-0.051-1-0.051c-0.338,0-0.669,0.024-1,0.051V4z"/>
		<path fill="#808284" d="M26,11v2h1.325c-0.111-0.686-0.273-1.356-0.492-2H26z"/>
		<path fill="#CCCCCC" d="M16,26h-2v1.45c0.331,0.026,0.662,0.051,1,0.051c0.338,0,0.669-0.024,1-0.051V26z"/>
		<rect x="17" y="23" fill="#CCCCCC" width="2" height="2"/>
		<path fill="#CCCCCC" d="M26,17v2h0.833c0.219-0.645,0.381-1.313,0.492-2H26z"/>
		<path fill="#CCCCCC" d="M26,20v0.933c0.164-0.303,0.31-0.615,0.45-0.933H26z"/>
		<path fill="#CCCCCC" d="M19,26.833V26h-2v1.325C17.686,27.214,18.355,27.052,19,26.833z"/>
		<path fill="#CCCCCC" d="M10,4V3.55C9.683,3.69,9.37,3.836,9.067,4H10z"/>
		<path fill="#CCCCCC" d="M17,4h2V3.167c-0.645-0.219-1.314-0.381-2-0.492V4z"/>
		<rect x="23" y="20" fill="#CCCCCC" width="2" height="2"/>
		<path fill="#CCCCCC" d="M24.595,23H23v1.595C23.578,24.111,24.111,23.578,24.595,23z"/>
		<rect x="20" y="23" fill="#CCCCCC" width="2" height="2"/>
		<rect x="23" y="17" fill="#CCCCCC" width="2" height="2"/>
		<rect x="23" y="14" fill="#CCCCCC" width="2" height="2"/>
		<path fill="#CCCCCC" d="M11,3.167V4h2V2.675C12.313,2.786,11.644,2.948,11,3.167z"/>
		<rect x="20" y="20" fill="#CCCCCC" width="2" height="2"/>
		<rect x="17" y="20" fill="#CCCCCC" width="2" height="2"/>
		<rect x="14" y="20" fill="#CCCCCC" width="2" height="2"/>
		<rect x="17" y="5" fill="#CCCCCC" width="2" height="2"/>
		<rect x="14" y="5" fill="#CCCCCC" width="2" height="2"/>
		<rect x="11" y="5" fill="#CCCCCC" width="2" height="2"/>
		<rect x="23" y="11" fill="#CCCCCC" width="2" height="2"/>
		<rect x="23" y="8" fill="#CCCCCC" width="2" height="2"/>
		<rect x="11" y="20" fill="#CCCCCC" width="2" height="2"/>
		<path fill="#CCCCCC" d="M20,4h0.933C20.63,3.836,20.317,3.69,20,3.55V4z"/>
	</g>
	<path fill="#808284" d="M15,0.199C6.827,0.199,0.199,6.827,0.199,15S6.827,29.801,15,29.801c8.173,0,14.801-6.628,14.801-14.801
		S23.173,0.199,15,0.199z M15,28.951C7.308,28.951,1.049,22.692,1.049,15S7.308,1.049,15,1.049c7.692,0,13.951,6.259,13.951,13.951
		S22.692,28.951,15,28.951z"/>
	<rect x="8" y="17" fill="#808284" width="5" height="5"/>
	<rect x="14" y="11" fill="#808284" width="5" height="5"/>
	<rect x="8" y="5" fill="#808284" width="5" height="5"/>
	<rect x="20" y="8" fill="#808284" width="2" height="2"/>
	<rect x="14" y="23" fill="#808284" width="2" height="2"/>
	<rect x="17" y="5" fill="#808284" width="2" height="2"/>
	<g>
		<path fill="#FFFFFF" d="M25,13c-2.757,0-5,2.243-5,5c0,0.5,0.096,0.974,0.233,1.43C18.916,20.084,18,21.431,18,23v5.618
			C24.254,27.24,28.951,21.662,28.951,15c0-0.01-0.002-0.019-0.002-0.03C28.035,13.78,26.613,13,25,13z"/>
	</g>
	<g>
		<path fill="#808284" d="M28,21h-6c-1.105,0-2,0.895-2,2v2v2v2c0,0.553,0.447,1,1,1h1v1c0,0.553,0.447,1,1,1h4c0.553,0,1-0.447,1-1
			v-1h1c0.553,0,1-0.447,1-1v-2v-2v-2C30,21.895,29.104,21,28,21z"/>
		<path fill="#E6E7E8" d="M28,22h-6c-0.551,0-1,0.448-1,1v6h2v2h4v-2h2v-6C29,22.448,28.551,22,28,22z"/>
		<circle fill="#808284" cx="25" cy="18" r="3"/>
		<circle fill="#E6E7E8" cx="25" cy="18" r="2"/>
		<rect x="22" y="24" fill="#939598" width="1" height="5"/>
		<rect x="27" y="24" fill="#939598" width="1" height="5"/>
	</g>
</g>
<g id="Icon_Name">
</g>
</svg>
