<?xml version="1.0" encoding="utf-8"?>
<!-- Generator: Adobe Illustrator 18.1.0, SVG Export Plug-In . SVG Version: 6.00 Build 0)  -->
<!DOCTYPE svg PUBLIC "-//W3C//DTD SVG 1.1//EN" "http://www.w3.org/Graphics/SVG/1.1/DTD/svg11.dtd">
<svg version="1.1" xmlns="http://www.w3.org/2000/svg" xmlns:xlink="http://www.w3.org/1999/xlink" x="0px" y="0px" width="32px"
	 height="32px" viewBox="0 0 32 32" enable-background="new 0 0 32 32" xml:space="preserve">
<g id="Icons">
	<rect x="4" y="23" fill="#808284" width="4" height="4"/>
	<rect x="5" y="24" fill="#E6E7E8" width="2" height="2"/>
	<rect x="10" y="23" fill="#939598" width="18" height="1"/>
	<rect x="10" y="25" fill="#CCCCCC" width="14" height="1"/>
	<rect x="10" y="27" fill="#CCCCCC" width="16" height="1"/>
	<rect x="4" y="13" fill="#808284" width="4" height="4"/>
	<rect x="5" y="14" fill="#E6E7E8" width="2" height="2"/>
	<rect x="10" y="13" fill="#939598" width="18" height="1"/>
	<rect x="10" y="15" fill="#CCCCCC" width="14" height="1"/>
	<rect x="10" y="17" fill="#CCCCCC" width="16" height="1"/>
	<rect x="4" y="3" fill="#808284" width="4" height="4"/>
	<rect x="5" y="4" fill="#E6E7E8" width="2" height="2"/>
	<rect x="10" y="3" fill="#939598" width="18" height="1"/>
	<rect x="10" y="5" fill="#CCCCCC" width="14" height="1"/>
	<rect x="10" y="7" fill="#CCCCCC" width="16" height="1"/>
</g>
<g id="Icon_Name">
</g>
</svg>
