<?xml version="1.0" encoding="utf-8"?>
<!-- Generator: Adobe Illustrator 18.1.0, SVG Export Plug-In . SVG Version: 6.00 Build 0)  -->
<!DOCTYPE svg PUBLIC "-//W3C//DTD SVG 1.1//EN" "http://www.w3.org/Graphics/SVG/1.1/DTD/svg11.dtd">
<svg version="1.1" xmlns="http://www.w3.org/2000/svg" xmlns:xlink="http://www.w3.org/1999/xlink" x="0px" y="0px" width="32px"
	 height="32px" viewBox="0 0 32 32" enable-background="new 0 0 32 32" xml:space="preserve">
<g id="Icons">
	<polygon fill="#939598" points="25.685,19.479 24.296,21.585 6.299,10.316 5.604,11.372 23.6,22.64 22.208,24.744 27.458,24.428 	
		"/>
	<polygon fill="#FFFFFF" points="18.514,19.455 19.704,18.71 14.745,15.606 13.556,16.351 	"/>
	<rect x="3" y="27" fill="#939598" width="25" height="1"/>
	<polygon fill="#808284" points="25.685,15.582 24.296,13.476 6.299,24.744 5.604,23.688 23.6,12.421 22.208,10.316 27.458,10.633 	
		"/>
	<rect x="1" y="26" fill="#CCCCCC" width="3" height="1"/>
	<rect x="1" y="23" fill="#CCCCCC" width="3" height="1"/>
	<rect x="1" y="20" fill="#CCCCCC" width="3" height="1"/>
	<rect x="1" y="17" fill="#CCCCCC" width="3" height="1"/>
	<rect x="1" y="14" fill="#CCCCCC" width="3" height="1"/>
	<rect x="1" y="11" fill="#CCCCCC" width="3" height="1"/>
	<rect x="1" y="8" fill="#CCCCCC" width="3" height="1"/>
	<rect x="3" y="7" fill="#939598" width="1" height="21"/>
</g>
<g id="Icon_Name">
</g>
</svg>
