<?xml version="1.0" encoding="utf-8"?>
<!-- Generator: Adobe Illustrator 18.1.0, SVG Export Plug-In . SVG Version: 6.00 Build 0)  -->
<!DOCTYPE svg PUBLIC "-//W3C//DTD SVG 1.1//EN" "http://www.w3.org/Graphics/SVG/1.1/DTD/svg11.dtd">
<svg version="1.1" xmlns="http://www.w3.org/2000/svg" xmlns:xlink="http://www.w3.org/1999/xlink" x="0px" y="0px" width="32px"
	 height="32px" viewBox="0 0 32 32" enable-background="new 0 0 32 32" xml:space="preserve">
<g id="Icons">
	<g>
		<path fill="#808284" d="M13,20H7c-1.105,0-2,0.895-2,2v2v2v2c0,0.553,0.447,1,1,1h1v1c0,0.553,0.447,1,1,1h4c0.553,0,1-0.447,1-1
			v-1h1c0.553,0,1-0.447,1-1v-2v-2v-2C15,20.895,14.104,20,13,20z"/>
		<path fill="#E6E7E8" d="M13,21H7c-0.551,0-1,0.448-1,1v6h2v2h4v-2h2v-6C14,21.448,13.551,21,13,21z"/>
		<circle fill="#808284" cx="10" cy="17" r="3"/>
		<circle fill="#E6E7E8" cx="10" cy="17" r="2"/>
		<rect x="7" y="23" fill="#939598" width="1" height="5"/>
		<rect x="12" y="23" fill="#939598" width="1" height="5"/>
	</g>
	<g>
		<path fill="#808284" d="M24,20h-6c-1.105,0-2,0.895-2,2v2v2v2c0,0.553,0.447,1,1,1h1v1c0,0.553,0.447,1,1,1h4c0.553,0,1-0.447,1-1
			v-1h1c0.553,0,1-0.447,1-1v-2v-2v-2C26,20.895,25.104,20,24,20z"/>
		<path fill="#E6E7E8" d="M24,21h-6c-0.551,0-1,0.448-1,1v6h2v2h4v-2h2v-6C25,21.448,24.551,21,24,21z"/>
		<circle fill="#808284" cx="21" cy="17" r="3"/>
		<circle fill="#E6E7E8" cx="21" cy="17" r="2"/>
		<rect x="18" y="23" fill="#939598" width="1" height="5"/>
		<rect x="23" y="23" fill="#939598" width="1" height="5"/>
	</g>
	<path fill="#808284" d="M14.788,13.46c-0.581-0.463-5.686-4.635-5.891-8.14C8.837,4.316,9.171,3.416,9.86,2.72
		c0.93-0.941,1.929-1.418,2.966-1.418c1.144,0,2.046,0.573,2.669,1.157c0.618-0.579,1.515-1.143,2.656-1.143
		c1.033,0,2.031,0.469,2.969,1.394c0.764,0.753,1.129,1.717,1.056,2.788c-0.24,3.561-5.412,7.541-6.001,7.983l-0.701,0.526
		L14.788,13.46z"/>
	<path fill="#E6E7E8" d="M15.318,12.796c-2-1.594-5.423-4.97-5.572-7.525c-0.047-0.768,0.195-1.425,0.718-1.953
		c0.765-0.773,1.559-1.166,2.362-1.166c0.729,0,1.431,0.312,2.088,0.928l0.581,0.545l0.581-0.545
		c0.647-0.605,1.345-0.913,2.075-0.913c0.801,0,1.6,0.387,2.372,1.149c0.59,0.582,0.861,1.297,0.805,2.125
		c-0.175,2.583-3.643,5.843-5.664,7.361l-0.174,0.131L15.318,12.796z"/>
</g>
<g id="Icon_Name">
</g>
</svg>
