<?xml version="1.0" encoding="utf-8"?>
<!-- Generator: Adobe Illustrator 18.1.0, SVG Export Plug-In . SVG Version: 6.00 Build 0)  -->
<!DOCTYPE svg PUBLIC "-//W3C//DTD SVG 1.1//EN" "http://www.w3.org/Graphics/SVG/1.1/DTD/svg11.dtd">
<svg version="1.1" xmlns="http://www.w3.org/2000/svg" xmlns:xlink="http://www.w3.org/1999/xlink" x="0px" y="0px" width="32px"
	 height="32px" viewBox="0 0 32 32" enable-background="new 0 0 32 32" xml:space="preserve">
<g id="Icons">
	<g>
		<path fill="#808284" d="M28,21h-6c-1.105,0-2,0.895-2,2v2v2v2c0,0.553,0.448,1,1,1h1v1c0,0.553,0.447,1,1,1h4c0.553,0,1-0.447,1-1
			v-1h1c0.552,0,1-0.447,1-1v-2v-2v-2C30,21.895,29.104,21,28,21z"/>
		<path fill="#E6E7E8" d="M28,22h-6c-0.551,0-1,0.448-1,1v6h2v2h4v-2h2v-6C29,22.448,28.551,22,28,22z"/>
		<circle fill="#939598" cx="25" cy="18" r="3"/>
		<circle fill="#E6E7E8" cx="25" cy="18" r="2"/>
		<rect x="22" y="24" fill="#939598" width="1" height="5"/>
		<rect x="27" y="24" fill="#939598" width="1" height="5"/>
	</g>
	<g>
		<path fill="#808284" d="M10,21H4c-1.105,0-2,0.895-2,2v2v2v2c0,0.553,0.448,1,1,1h1v1c0,0.553,0.447,1,1,1h4c0.553,0,1-0.447,1-1
			v-1h1c0.552,0,1-0.447,1-1v-2v-2v-2C12,21.895,11.104,21,10,21z"/>
		<path fill="#FFFFFF" d="M10,22H4c-0.551,0-1,0.448-1,1v6h2v2h4v-2h2v-6C11,22.448,10.551,22,10,22z"/>
		<circle fill="#808284" cx="7" cy="18" r="3"/>
		<circle fill="#FFFFFF" cx="7" cy="18" r="2"/>
		<rect x="4" y="24" fill="#939598" width="1" height="5"/>
		<rect x="9" y="24" fill="#939598" width="1" height="5"/>
	</g>
	<path fill="#808284" d="M19,6h-6c-1.105,0-2,0.894-2,2v2v2v2c0,0.553,0.448,1,1,1h1v1c0,0.553,0.447,1,1,1h4c0.553,0,1-0.447,1-1
		v-1h1c0.552,0,1-0.447,1-1v-2v-2V8C21,6.894,20.104,6,19,6z"/>
	<path fill="#CCCCCC" d="M19,7h-6c-0.551,0-1,0.448-1,1v6h2v2h4v-2h2V8C20,7.448,19.551,7,19,7z"/>
	<circle fill="#808284" cx="16" cy="3" r="3"/>
	<circle fill="#CCCCCC" cx="16" cy="3" r="2"/>
	<rect x="13" y="9" fill="#939598" width="1" height="5"/>
	<rect x="18" y="9" fill="#939598" width="1" height="5"/>
</g>
<g id="Icon_Name">
</g>
</svg>
