<?xml version="1.0" encoding="utf-8"?>
<!-- Generator: Adobe Illustrator 22.0.1, SVG Export Plug-In . SVG Version: 6.00 Build 0)  -->
<svg version="1.1" xmlns="http://www.w3.org/2000/svg" xmlns:xlink="http://www.w3.org/1999/xlink" x="0px" y="0px"
	 viewBox="0 0 32 32" enable-background="new 0 0 32 32" xml:space="preserve">
<g id="icon_Name">
</g>
<g id="icons">
	<g>
		<path fill="#6F6F6F" d="M29,5.000061h-2l-0.000061,6.1157837C25.232605,6.4769287,20.7597046,3.1749878,15.5,3.1749878
			C9.2019043,3.1749878,4.0167236,7.9019165,3.2752686,14h1.7435303C5.7513428,8.8647461,10.1655273,4.8999634,15.5,4.8999634
			c4.6167603,0,8.5392456,2.9720459,9.9873657,7.1000366H20v2h5.9812012h1.0187378h0.7247925h1.2752075H29v-2h-0.000061L29,5.000061
			z"/>
		<path fill="#6F6F6F" d="M16.5,27.0999756c-4.6167603,0-8.5392456-2.9719849-9.9873657-7.0999756H12v-2H6.0187988H5.000061
			H4.2752686H3.000061H3v2h0.000061L3,26.9998779h2l0.000061-6.1116943C6.767334,25.5258789,11.241333,28.8249512,16.5,28.8249512
			c6.2980957,0,11.4832764-4.7268677,12.2247314-10.8249512h-1.7435303
			C26.2486572,23.1352539,21.8344727,27.0999756,16.5,27.0999756z"/>
	</g>
</g>
</svg>
